<svg width="41" height="36" viewBox="0 0 41 36" fill="none" xmlns="http://www.w3.org/2000/svg">
<path d="M8.79739 2.1978C9.50915 0.950008 10.8354 0.179703 12.2719 0.179703H27.7526C29.1891 0.179703 30.5153 0.950006 31.2271 2.1978L38.8817 15.6172C39.5824 16.8455 39.5824 18.3526 38.8817 19.581L31.2271 33.0003C30.5153 34.2481 29.1891 35.0184 27.7526 35.0184H12.2719C10.8354 35.0184 9.50915 34.2481 8.79739 33.0003L1.14275 19.581C0.442066 18.3526 0.442065 16.8455 1.14275 15.6172L8.79739 2.1978Z" fill="#4673D2"/>
<g clip-path="url(#clip0_10_3529)">
<path d="M28.7077 9.98875C22.706 10.165 20.5253 6.96819 20.4393 6.83448C20.2673 6.57315 19.8372 6.57315 19.6652 6.83448C19.6407 6.86487 17.3862 10.165 11.3967 9.98875C11.2739 9.9766 11.151 10.0313 11.065 10.1164C10.9729 10.2015 10.9237 10.323 10.9237 10.4446V17.1725C10.9237 20.4908 12.3796 23.5965 14.9167 25.6932C16.2866 26.8237 17.9452 27.9055 19.8434 28.9204C19.911 28.9569 19.9847 28.9751 20.0645 28.9751C20.1382 28.9751 20.2181 28.9569 20.2857 28.9204C22.2084 27.8872 23.8609 26.8054 25.2124 25.6932C27.7494 23.5965 29.1992 20.4908 29.1992 17.1725V10.4446C29.1992 10.323 29.15 10.2015 29.0579 10.1164C28.9535 10.0313 28.8367 9.9766 28.7077 9.98875ZM28.2593 17.1725C28.2593 20.2173 26.9263 23.0677 24.6042 24.9943C23.3572 26.0214 21.8214 27.0303 20.0522 27.9966C18.3015 27.0485 16.7719 26.0397 15.5003 24.9943C13.1721 23.0738 11.839 20.2173 11.839 17.1725V10.9065C11.8513 10.9065 11.8575 10.9065 11.8698 10.9065C16.6982 10.9065 19.1677 8.79147 20.0522 7.81298C20.9368 8.79147 23.4002 10.9065 28.2347 10.9065C28.247 10.9065 28.2532 10.9065 28.2654 10.9065V17.1725H28.2593Z" fill="white"/>
<path d="M23.2 15.933H22.6599V14.3976C22.6599 12.921 21.4217 11.715 19.8922 11.715C18.3627 11.715 17.1245 12.9151 17.1245 14.3976V15.933H16.5844C16.0745 15.933 15.6618 16.333 15.6618 16.8272V22.3276C15.6618 22.8217 16.0745 23.2218 16.5844 23.2218H23.2C23.7099 23.2218 24.1226 22.8217 24.1226 22.3276V16.8272C24.1287 16.333 23.7099 15.933 23.2 15.933ZM18.041 14.3976C18.041 13.4034 18.8725 12.5974 19.8983 12.5974C20.924 12.5974 21.7555 13.4034 21.7555 14.3976V15.933H18.0471V14.3976H18.041ZM23.2 22.3452L16.5722 22.3335L16.5844 16.8154H23.2L23.2122 16.8272L23.2 22.3452Z" fill="white"/>
<path d="M19.835 18.6385C19.6375 18.6385 19.4737 18.797 19.4737 18.9881V19.981C19.4737 20.1722 19.6375 20.3307 19.835 20.3307C20.0325 20.3307 20.1963 20.1722 20.1963 19.981V18.9881C20.1963 18.7923 20.0373 18.6385 19.835 18.6385Z" fill="white"/>
</g>
<defs>
<clipPath id="clip0_10_3529">
<rect width="22.3367" height="22.3367" fill="white" transform="translate(8.89313 6.63848)"/>
</clipPath>
</defs>
</svg>
