<svg width="31" height="28" viewBox="0 0 31 28" fill="none" xmlns="http://www.w3.org/2000/svg">
<path d="M30.6771 25.1364H2.90625V0.318182C2.90625 0.143182 2.76094 0 2.58333 0H0.322917C0.145312 0 0 0.143182 0 0.318182V27.6818C0 27.8568 0.145312 28 0.322917 28H30.6771C30.8547 28 31 27.8568 31 27.6818V25.4545C31 25.2795 30.8547 25.1364 30.6771 25.1364ZM7.17682 18.9994C7.30195 19.1227 7.50378 19.1227 7.63294 18.9994L13.2154 13.5267L18.3659 18.6335C18.491 18.7568 18.6969 18.7568 18.822 18.6335L29.9384 7.68409C30.0635 7.5608 30.0635 7.35795 29.9384 7.23466L28.34 5.65966C28.2793 5.60044 28.1973 5.56723 28.1119 5.56723C28.0265 5.56723 27.9445 5.60044 27.8839 5.65966L18.6 14.8034L13.4576 9.70455C13.3969 9.64533 13.3149 9.61211 13.2295 9.61211C13.1441 9.61211 13.0621 9.64533 13.0014 9.70455L5.58242 16.971C5.52233 17.0308 5.48861 17.1116 5.48861 17.1957C5.48861 17.2799 5.52233 17.3607 5.58242 17.4205L7.17682 18.9994Z" fill="#8B97A8"/>
</svg>
