<svg width="31" height="28" viewBox="0 0 31 28" fill="none" xmlns="http://www.w3.org/2000/svg">
<path d="M30.6771 25.1364H2.90625V0.318182C2.90625 0.143182 2.76094 0 2.58333 0H0.322917C0.145312 0 0 0.143182 0 0.318182V27.6818C0 27.8568 0.145312 28 0.322917 28H30.6771C30.8547 28 31 27.8568 31 27.6818V25.4545C31 25.2795 30.8547 25.1364 30.6771 25.1364ZM6.45833 21.9545H8.71875C8.89635 21.9545 9.04167 21.8114 9.04167 21.6364V15.9091C9.04167 15.7341 8.89635 15.5909 8.71875 15.5909H6.45833C6.28073 15.5909 6.13542 15.7341 6.13542 15.9091V21.6364C6.13542 21.8114 6.28073 21.9545 6.45833 21.9545ZM12.5938 21.9545H14.8542C15.0318 21.9545 15.1771 21.8114 15.1771 21.6364V8.90909C15.1771 8.73409 15.0318 8.59091 14.8542 8.59091H12.5938C12.4161 8.59091 12.2708 8.73409 12.2708 8.90909V21.6364C12.2708 21.8114 12.4161 21.9545 12.5938 21.9545ZM18.7292 21.9545H20.9896C21.1672 21.9545 21.3125 21.8114 21.3125 21.6364V12.0114C21.3125 11.8364 21.1672 11.6932 20.9896 11.6932H18.7292C18.5516 11.6932 18.4062 11.8364 18.4062 12.0114V21.6364C18.4062 21.8114 18.5516 21.9545 18.7292 21.9545ZM24.8646 21.9545H27.125C27.3026 21.9545 27.4479 21.8114 27.4479 21.6364V5.72727C27.4479 5.55227 27.3026 5.40909 27.125 5.40909H24.8646C24.687 5.40909 24.5417 5.55227 24.5417 5.72727V21.6364C24.5417 21.8114 24.687 21.9545 24.8646 21.9545Z" fill="#8B97A8"/>
</svg>
