<svg width="31" height="31" viewBox="0 0 31 31" fill="none" xmlns="http://www.w3.org/2000/svg">
<path d="M27.8991 15.7119H15.2881V3.10096C15.2881 2.94597 15.1613 2.81915 15.0063 2.81915H14.0904C12.24 2.81612 10.4073 3.17901 8.6976 3.88693C6.98794 4.59485 5.43514 5.63384 4.12852 6.94412C2.84174 8.22692 1.81645 9.7475 1.10964 11.4213C0.374141 13.1574 -0.0032733 15.0241 2.13862e-05 16.9096C-0.0030087 18.76 0.359877 20.5928 1.0678 22.3024C1.77572 24.0121 2.81471 25.5649 4.12499 26.8715C5.41779 28.1643 6.92547 29.1823 8.60223 29.8904C10.3383 30.6259 12.205 31.0033 14.0904 31C15.9409 31.003 17.7736 30.6401 19.4833 29.9322C21.193 29.2243 22.7458 28.1853 24.0524 26.875C25.3452 25.5822 26.3632 24.0745 27.0713 22.3978C27.8068 20.6617 28.1842 18.795 28.1809 16.9096V15.9937C28.1809 15.8387 28.0541 15.7119 27.8991 15.7119ZM22.3228 25.2159C21.232 26.2981 19.9384 27.1546 18.5161 27.7361C17.0937 28.3176 15.5707 28.6127 14.0341 28.6046C10.9307 28.5905 8.01395 27.3752 5.81937 25.1806C3.61069 22.972 2.39539 20.0341 2.39539 16.9096C2.39539 13.785 3.61069 10.8472 5.81937 8.63849C7.74271 6.71515 10.2191 5.54212 12.8928 5.27441V18.1073H25.7256C25.4544 20.795 24.2708 23.2855 22.3228 25.2159ZM30.999 13.7533L30.9074 12.7599C30.6079 9.51562 29.1672 6.45448 26.8493 4.14365C24.5298 1.82858 21.475 0.395832 18.2119 0.0926575L17.215 0.00106991C17.0494 -0.0130205 16.9085 0.113793 16.9085 0.279356V13.8097C16.9085 13.9647 17.0353 14.0915 17.1903 14.0915L30.7171 14.0563C30.8827 14.0563 31.013 13.9154 30.999 13.7533ZM19.2969 11.7032V2.66416C21.5159 3.12861 23.5522 4.22755 25.1585 5.82746C26.7683 7.43376 27.8709 9.47687 28.3288 11.6785L19.2969 11.7032Z" fill="#8B97A8"/>
</svg>
