<svg width="13" height="13" viewBox="0 0 13 13" fill="none" xmlns="http://www.w3.org/2000/svg">
<path fill-rule="evenodd" clip-rule="evenodd" d="M12.2929 1.70711C12.6834 1.31658 12.6834 0.683417 12.2929 0.292893C11.9024 -0.0976311 11.2692 -0.0976311 10.8787 0.292893L6.1471 5.02448L1.70711 0.58449C1.31658 0.193966 0.683418 0.193966 0.292894 0.58449C-0.0976306 0.975015 -0.0976306 1.60818 0.292894 1.9987L4.73288 6.43869L0.292893 10.8787C-0.0976309 11.2692 -0.0976312 11.9024 0.292893 12.2929C0.683417 12.6834 1.31658 12.6834 1.70711 12.2929L6.1471 7.8529L10.8787 12.5845C11.2692 12.975 11.9024 12.975 12.2929 12.5845C12.6834 12.194 12.6834 11.5608 12.2929 11.1703L7.56131 6.43869L12.2929 1.70711Z" fill="#B4C1CD"/>
</svg>
