<svg width="16" height="17" viewBox="0 0 16 17" fill="none" xmlns="http://www.w3.org/2000/svg">
<path d="M13.375 6.85H11.625C10.8502 6.85 10.3885 6.65674 10.1159 6.38413C9.84326 6.11152 9.65 5.64981 9.65 4.875V3.125C9.65 2.35019 9.84326 1.88848 10.1159 1.61587C10.3885 1.34326 10.8502 1.15 11.625 1.15H13.375C14.1498 1.15 14.6115 1.34326 14.8841 1.61587C15.1567 1.88848 15.35 2.35019 15.35 3.125V4.875C15.35 5.64981 15.1567 6.11152 14.8841 6.38413C14.6115 6.65674 14.1498 6.85 13.375 6.85Z" stroke="#2C2C2C" stroke-width="1.3" stroke-miterlimit="10" stroke-linecap="round" stroke-linejoin="round"/>
<path d="M4.375 15.85H2.625C1.85019 15.85 1.38848 15.6567 1.11587 15.3841C0.843261 15.1115 0.65 14.6498 0.65 13.875V12.125C0.65 11.3502 0.843261 10.8885 1.11587 10.6159C1.38848 10.3433 1.85019 10.15 2.625 10.15H4.375C5.14981 10.15 5.61152 10.3433 5.88413 10.6159C6.15674 10.8885 6.35 11.3502 6.35 12.125V13.875C6.35 14.6498 6.15674 15.1115 5.88413 15.3841C5.61152 15.6567 5.14981 15.85 4.375 15.85Z" stroke="#2C2C2C" stroke-width="1.3" stroke-miterlimit="10" stroke-linecap="round" stroke-linejoin="round"/>
<path d="M6.35 4C6.35 5.57401 5.07401 6.85 3.5 6.85C1.92599 6.85 0.65 5.57401 0.65 4C0.65 2.42599 1.92599 1.15 3.5 1.15C5.07401 1.15 6.35 2.42599 6.35 4Z" stroke="#2C2C2C" stroke-width="1.3" stroke-miterlimit="10" stroke-linecap="round" stroke-linejoin="round"/>
<path d="M15.35 13C15.35 14.574 14.074 15.85 12.5 15.85C10.926 15.85 9.65 14.574 9.65 13C9.65 11.426 10.926 10.15 12.5 10.15C14.074 10.15 15.35 11.426 15.35 13Z" stroke="#2C2C2C" stroke-width="1.3" stroke-miterlimit="10" stroke-linecap="round" stroke-linejoin="round"/>
</svg>
