<svg width="19" height="18" viewBox="0 0 19 18" fill="none" xmlns="http://www.w3.org/2000/svg">
<path d="M18.0012 8.16373C18.2086 8.00619 18.3625 7.78641 18.4412 7.53522C18.5199 7.28403 18.5196 7.01402 18.4402 6.76304C18.3608 6.51207 18.2064 6.29272 17.9985 6.13575C17.7907 5.97878 17.5399 5.89206 17.2812 5.88775L12.2582 5.69429C12.2335 5.69255 12.2098 5.68357 12.19 5.66843C12.1702 5.65329 12.1552 5.63263 12.1466 5.60894L10.4109 0.829395C10.3237 0.58623 10.1653 0.376258 9.95713 0.227909C9.74899 0.0795604 9.50117 0 9.24721 0C8.99325 0 8.74543 0.0795604 8.53729 0.227909C8.32915 0.376258 8.17076 0.58623 8.08355 0.829395L6.3534 5.62601C6.34485 5.6497 6.32976 5.67036 6.30996 5.6855C6.29015 5.70064 6.26648 5.70962 6.24178 5.71136L1.21877 5.90482C0.960149 5.90913 0.70933 5.99584 0.501486 6.15281C0.293642 6.30979 0.139197 6.52914 0.0598056 6.78011C-0.0195858 7.03109 -0.019942 7.3011 0.0587869 7.55229C0.137516 7.80348 0.291382 8.02326 0.498811 8.1808L4.43908 11.3387C4.4588 11.3545 4.47354 11.3759 4.48147 11.4002C4.48941 11.4244 4.49019 11.4506 4.48373 11.4753L3.12752 16.3743C3.05724 16.6238 3.06405 16.8893 3.14702 17.1347C3.22999 17.38 3.38509 17.5934 3.59122 17.7457C3.79736 17.8981 4.04452 17.982 4.29908 17.986C4.55364 17.9901 4.80324 17.9141 5.01393 17.7683L9.17745 14.9234C9.19795 14.9089 9.22229 14.9012 9.24721 14.9012C9.27213 14.9012 9.29646 14.9089 9.31697 14.9234L13.4805 17.7683C13.6883 17.919 13.937 18 14.1921 18C14.4471 18 14.6958 17.919 14.9037 17.7683C15.1099 17.6174 15.2651 17.4051 15.3481 17.1606C15.431 16.916 15.4376 16.6513 15.3669 16.4028L13.9995 11.4867C13.9923 11.462 13.9927 11.4356 14.0007 11.4112C14.0087 11.3867 14.0239 11.3654 14.0442 11.3501L18.0012 8.16373Z" fill="#4673D2"/>
</svg>
