<svg width="12" height="12" viewBox="0 0 22 22" fill="none" xmlns="http://www.w3.org/2000/svg">
<path d="M15.3311 7.7732L1.72303 0.126323C1.53945 0.0307326 1.33751 -0.0117363 1.1356 0.00278215C0.933683 0.0173006 0.738206 0.0883455 0.566962 0.209449C0.395717 0.330553 0.254143 0.49787 0.155127 0.696169C0.0561113 0.894467 0.00279827 1.11745 4.11473e-05 1.34482V16.632C-0.00167327 16.8654 0.0502128 17.0953 0.150685 17.2996C0.251156 17.5039 0.396816 17.6756 0.573584 17.7981C0.750353 17.9206 0.952253 17.9898 1.15977 17.9989C1.36729 18.0081 1.5734 17.957 1.75819 17.8505L15.3311 10.2036C15.5322 10.0902 15.7012 9.91615 15.8193 9.70097C15.9374 9.4858 16 9.23794 16 8.98511C16 8.73228 15.9374 8.48442 15.8193 8.26925C15.7012 8.05407 15.5322 7.88004 15.3311 7.76661V7.7732Z" fill="#666666"/>
</svg>
