<svg width="80" height="40" viewBox="0 0 80 40" fill="none" xmlns="http://www.w3.org/2000/svg">
<rect x="0.5" y="0.5" width="79" height="39" rx="3.5" fill="white"/>
<path d="M43.46 21.4844C43.46 21.252 43.4235 21.0469 43.3506 20.8691C43.2822 20.6868 43.1592 20.5228 42.9814 20.377C42.8083 20.2311 42.5667 20.0921 42.2568 19.96C41.9515 19.8278 41.5641 19.6934 41.0947 19.5566C40.6025 19.4108 40.1582 19.249 39.7617 19.0713C39.3652 18.889 39.0257 18.6816 38.7432 18.4492C38.4606 18.2168 38.2441 17.9502 38.0938 17.6494C37.9434 17.3486 37.8682 17.0046 37.8682 16.6172C37.8682 16.2298 37.9479 15.8721 38.1074 15.5439C38.2669 15.2158 38.4948 14.931 38.791 14.6895C39.0918 14.4434 39.4495 14.252 39.8643 14.1152C40.279 13.9785 40.7415 13.9102 41.252 13.9102C41.9993 13.9102 42.6328 14.0537 43.1523 14.3408C43.6764 14.6234 44.0752 14.9948 44.3486 15.4551C44.6221 15.9108 44.7588 16.3984 44.7588 16.918H43.4463C43.4463 16.5443 43.3665 16.2139 43.207 15.9268C43.0475 15.6351 42.806 15.4072 42.4824 15.2432C42.1589 15.0745 41.7487 14.9902 41.252 14.9902C40.7826 14.9902 40.3952 15.0609 40.0898 15.2021C39.7845 15.3434 39.5566 15.5348 39.4062 15.7764C39.2604 16.0179 39.1875 16.2936 39.1875 16.6035C39.1875 16.8132 39.2308 17.0046 39.3174 17.1777C39.4085 17.3464 39.5475 17.5036 39.7344 17.6494C39.9258 17.7952 40.1673 17.9297 40.459 18.0527C40.7552 18.1758 41.1084 18.2943 41.5186 18.4082C42.0837 18.5677 42.5713 18.7454 42.9814 18.9414C43.3916 19.1374 43.7288 19.3584 43.9932 19.6045C44.262 19.846 44.4603 20.1217 44.5879 20.4316C44.7201 20.737 44.7861 21.0833 44.7861 21.4707C44.7861 21.8763 44.7041 22.2432 44.54 22.5713C44.376 22.8994 44.1413 23.1797 43.8359 23.4121C43.5306 23.6445 43.1637 23.8245 42.7354 23.9521C42.3115 24.0752 41.8376 24.1367 41.3135 24.1367C40.8532 24.1367 40.3997 24.0729 39.9531 23.9453C39.5111 23.8177 39.1077 23.6263 38.7432 23.3711C38.3831 23.1159 38.0938 22.8014 37.875 22.4277C37.6608 22.0495 37.5537 21.612 37.5537 21.1152H38.8662C38.8662 21.457 38.9323 21.751 39.0645 21.9971C39.1966 22.2386 39.3766 22.4391 39.6045 22.5986C39.8369 22.7581 40.099 22.8766 40.3906 22.9541C40.6868 23.027 40.9945 23.0635 41.3135 23.0635C41.7738 23.0635 42.1634 22.9997 42.4824 22.8721C42.8014 22.7445 43.043 22.5622 43.207 22.3252C43.3757 22.0882 43.46 21.8079 43.46 21.4844ZM49.073 16.6035V17.5742H45.074V16.6035H49.073ZM46.4275 14.8057H47.6922V22.168C47.6922 22.4186 47.7309 22.6077 47.8084 22.7354C47.8859 22.863 47.9861 22.9473 48.1092 22.9883C48.2322 23.0293 48.3644 23.0498 48.5057 23.0498C48.6105 23.0498 48.7199 23.0407 48.8338 23.0225C48.9523 22.9997 49.0411 22.9814 49.1004 22.9678L49.1072 24C49.007 24.0319 48.8748 24.0615 48.7107 24.0889C48.5512 24.1208 48.3576 24.1367 48.1297 24.1367C47.8198 24.1367 47.535 24.0752 47.2752 23.9521C47.0154 23.8291 46.8081 23.624 46.6531 23.3369C46.5027 23.0452 46.4275 22.6533 46.4275 22.1611V14.8057ZM49.7848 20.3838V20.2266C49.7848 19.6934 49.8622 19.1989 50.0172 18.7432C50.1721 18.2829 50.3954 17.8841 50.6871 17.5469C50.9788 17.2051 51.332 16.9408 51.7467 16.7539C52.1614 16.5625 52.6262 16.4668 53.1412 16.4668C53.6607 16.4668 54.1279 16.5625 54.5426 16.7539C54.9618 16.9408 55.3173 17.2051 55.609 17.5469C55.9052 17.8841 56.1308 18.2829 56.2857 18.7432C56.4407 19.1989 56.5182 19.6934 56.5182 20.2266V20.3838C56.5182 20.917 56.4407 21.4115 56.2857 21.8672C56.1308 22.3229 55.9052 22.7217 55.609 23.0635C55.3173 23.4007 54.9641 23.665 54.5494 23.8564C54.1393 24.0433 53.6744 24.1367 53.1549 24.1367C52.6354 24.1367 52.1682 24.0433 51.7535 23.8564C51.3388 23.665 50.9833 23.4007 50.6871 23.0635C50.3954 22.7217 50.1721 22.3229 50.0172 21.8672C49.8622 21.4115 49.7848 20.917 49.7848 20.3838ZM51.0494 20.2266V20.3838C51.0494 20.7529 51.0927 21.1016 51.1793 21.4297C51.2659 21.7533 51.3958 22.0404 51.5689 22.291C51.7467 22.5417 51.9677 22.7399 52.232 22.8857C52.4964 23.027 52.804 23.0977 53.1549 23.0977C53.5012 23.0977 53.8043 23.027 54.0641 22.8857C54.3284 22.7399 54.5471 22.5417 54.7203 22.291C54.8935 22.0404 55.0234 21.7533 55.11 21.4297C55.2011 21.1016 55.2467 20.7529 55.2467 20.3838V20.2266C55.2467 19.862 55.2011 19.5179 55.11 19.1943C55.0234 18.8662 54.8912 18.5768 54.7135 18.3262C54.5403 18.071 54.3215 17.8704 54.0572 17.7246C53.7975 17.5788 53.4921 17.5059 53.1412 17.5059C52.7949 17.5059 52.4895 17.5788 52.2252 17.7246C51.9654 17.8704 51.7467 18.071 51.5689 18.3262C51.3958 18.5768 51.2659 18.8662 51.1793 19.1943C51.0927 19.5179 51.0494 19.862 51.0494 20.2266ZM59.0688 18.0254V26.8438H57.7973V16.6035H58.9594L59.0688 18.0254ZM64.0521 20.2402V20.3838C64.0521 20.9215 63.9883 21.4206 63.8607 21.8809C63.7331 22.3366 63.5463 22.7331 63.3002 23.0703C63.0587 23.4076 62.7602 23.6696 62.4047 23.8564C62.0492 24.0433 61.6413 24.1367 61.1811 24.1367C60.7117 24.1367 60.2969 24.0592 59.9369 23.9043C59.5769 23.7493 59.2715 23.5238 59.0209 23.2275C58.7702 22.9313 58.5697 22.5758 58.4193 22.1611C58.2735 21.7464 58.1732 21.2793 58.1186 20.7598V19.9941C58.1732 19.4473 58.2758 18.9574 58.4262 18.5244C58.5766 18.0915 58.7748 17.7223 59.0209 17.417C59.2715 17.1071 59.5746 16.8724 59.9301 16.7129C60.2855 16.5488 60.6957 16.4668 61.1605 16.4668C61.6254 16.4668 62.0378 16.5579 62.3979 16.7402C62.7579 16.918 63.0609 17.1732 63.307 17.5059C63.5531 17.8385 63.7377 18.2373 63.8607 18.7021C63.9883 19.1624 64.0521 19.6751 64.0521 20.2402ZM62.7807 20.3838V20.2402C62.7807 19.8711 62.7419 19.5247 62.6645 19.2012C62.587 18.873 62.4662 18.5859 62.3021 18.3398C62.1426 18.0892 61.9376 17.8932 61.6869 17.752C61.4363 17.6061 61.1378 17.5332 60.7914 17.5332C60.4724 17.5332 60.1944 17.5879 59.9574 17.6973C59.725 17.8066 59.5268 17.9548 59.3627 18.1416C59.1986 18.3239 59.0642 18.5335 58.9594 18.7705C58.8591 19.0029 58.7839 19.2445 58.7338 19.4951V21.2656C58.8249 21.5846 58.9525 21.8854 59.1166 22.168C59.2807 22.446 59.4994 22.6715 59.7729 22.8447C60.0463 23.0133 60.3904 23.0977 60.8051 23.0977C61.1469 23.0977 61.4408 23.027 61.6869 22.8857C61.9376 22.7399 62.1426 22.5417 62.3021 22.291C62.4662 22.0404 62.587 21.7533 62.6645 21.4297C62.7419 21.1016 62.7807 20.7529 62.7807 20.3838Z" fill="#2C2C2C"/>
<path fill-rule="evenodd" clip-rule="evenodd" d="M17 12C15.8954 12 15 12.8954 15 14V26C15 27.1046 15.8954 28 17 28H19C20.1046 28 21 27.1046 21 26V14C21 12.8954 20.1046 12 19 12H17ZM25 12C23.8954 12 23 12.8954 23 14V26C23 27.1046 23.8954 28 25 28H27C28.1046 28 29 27.1046 29 26V14C29 12.8954 28.1046 12 27 12H25Z" fill="#B4C1CD"/>
<rect x="0.5" y="0.5" width="79" height="39" rx="3.5" stroke="#B4C1CD"/>
</svg>
