<svg width="49" height="20" viewBox="0 0 49 20" fill="none" xmlns="http://www.w3.org/2000/svg">
<path d="M10.0952 0.75H38.9048C41.3856 0.75 43.7633 1.72626 45.5154 3.46177C47.2672 5.19704 48.25 7.54905 48.25 10C48.25 12.4509 47.2672 14.803 45.5154 16.5382C43.7633 18.2737 41.3856 19.25 38.9048 19.25H10.0952C7.61444 19.25 5.23667 18.2737 3.48464 16.5382C1.73284 14.803 0.75 12.4509 0.75 10C0.75 7.54905 1.73284 5.19704 3.48464 3.46177C5.23668 1.72626 7.61444 0.75 10.0952 0.75Z" stroke="#CBD4DC" stroke-width="1.5" stroke-linecap="round" stroke-linejoin="round"/>
<path d="M10 16C13.3137 16 16 13.3137 16 10C16 6.68629 13.3137 4 10 4C6.68629 4 4 6.68629 4 10C4 13.3137 6.68629 16 10 16Z" fill="#CBD4DC"/>
<path d="M30.1885 10.0869V10.6709C30.1885 11.3649 30.1017 11.987 29.9282 12.5371C29.7547 13.0872 29.505 13.5549 29.1792 13.9399C28.8534 14.325 28.4619 14.6191 28.0049 14.8223C27.5521 15.0254 27.0443 15.127 26.4814 15.127C25.9355 15.127 25.4341 15.0254 24.9771 14.8223C24.5243 14.6191 24.1307 14.325 23.7964 13.9399C23.4663 13.5549 23.2103 13.0872 23.0283 12.5371C22.8464 11.987 22.7554 11.3649 22.7554 10.6709V10.0869C22.7554 9.3929 22.8442 8.77295 23.022 8.22705C23.2039 7.67692 23.46 7.20931 23.79 6.82422C24.1201 6.4349 24.5116 6.13867 24.9644 5.93555C25.4214 5.73242 25.9229 5.63086 26.4688 5.63086C27.0316 5.63086 27.5394 5.73242 27.9922 5.93555C28.4492 6.13867 28.8407 6.4349 29.1665 6.82422C29.4966 7.20931 29.7484 7.67692 29.9219 8.22705C30.0996 8.77295 30.1885 9.3929 30.1885 10.0869ZM28.9761 10.6709V10.0742C28.9761 9.52409 28.9189 9.03743 28.8047 8.61426C28.6947 8.19108 28.5317 7.83561 28.3159 7.54785C28.1001 7.26009 27.8356 7.04215 27.5225 6.89404C27.2135 6.74593 26.8623 6.67188 26.4688 6.67188C26.0879 6.67188 25.743 6.74593 25.4341 6.89404C25.1294 7.04215 24.867 7.26009 24.647 7.54785C24.4312 7.83561 24.264 8.19108 24.1455 8.61426C24.027 9.03743 23.9678 9.52409 23.9678 10.0742V10.6709C23.9678 11.2253 24.027 11.7161 24.1455 12.1436C24.264 12.5667 24.4333 12.9243 24.6533 13.2163C24.8776 13.5041 25.1421 13.722 25.4468 13.8701C25.7557 14.0182 26.1006 14.0923 26.4814 14.0923C26.8792 14.0923 27.2326 14.0182 27.5415 13.8701C27.8504 13.722 28.1107 13.5041 28.3223 13.2163C28.5381 12.9243 28.701 12.5667 28.811 12.1436C28.9211 11.7161 28.9761 11.2253 28.9761 10.6709ZM33.2972 15H32.1229V7.4082C32.1229 6.91309 32.2117 6.49626 32.3895 6.15771C32.5714 5.81494 32.8317 5.5568 33.1702 5.3833C33.5088 5.20557 33.9108 5.1167 34.3763 5.1167C34.5117 5.1167 34.6471 5.12516 34.7825 5.14209C34.9222 5.15902 35.0576 5.18441 35.1888 5.21826L35.1253 6.17676C35.0364 6.1556 34.9349 6.14079 34.8206 6.13232C34.7106 6.12386 34.6006 6.11963 34.4905 6.11963C34.2409 6.11963 34.025 6.17041 33.8431 6.27197C33.6653 6.3693 33.5299 6.51318 33.4368 6.70361C33.3437 6.89404 33.2972 7.12891 33.2972 7.4082V15ZM34.7571 8.13184V9.0332H31.0374V8.13184H34.7571ZM37.5167 15H36.3424V7.4082C36.3424 6.91309 36.4312 6.49626 36.609 6.15771C36.791 5.81494 37.0512 5.5568 37.3897 5.3833C37.7283 5.20557 38.1303 5.1167 38.5958 5.1167C38.7312 5.1167 38.8666 5.12516 39.0021 5.14209C39.1417 5.15902 39.2771 5.18441 39.4083 5.21826L39.3448 6.17676C39.256 6.1556 39.1544 6.14079 39.0401 6.13232C38.9301 6.12386 38.8201 6.11963 38.7101 6.11963C38.4604 6.11963 38.2446 6.17041 38.0626 6.27197C37.8849 6.3693 37.7494 6.51318 37.6563 6.70361C37.5632 6.89404 37.5167 7.12891 37.5167 7.4082V15ZM38.9767 8.13184V9.0332H35.2569V8.13184H38.9767Z" fill="#999999"/>
</svg>
