<svg width="80" height="80" viewBox="0 0 80 80" fill="none" xmlns="http://www.w3.org/2000/svg">
<path fill-rule="evenodd" clip-rule="evenodd" d="M40 74C58.7777 74 74 58.7777 74 40C74 21.2223 58.7777 6 40 6C21.2223 6 6 21.2223 6 40C6 58.7777 21.2223 74 40 74ZM40 80C62.0914 80 80 62.0914 80 40C80 17.9086 62.0914 0 40 0C17.9086 0 0 17.9086 0 40C0 62.0914 17.9086 80 40 80Z" fill="#B4C1CD"/>
<path fill-rule="evenodd" clip-rule="evenodd" d="M40 17C41.6569 17 43 18.3431 43 20V48C43 49.6569 41.6569 51 40 51C38.3431 51 37 49.6569 37 48V20C37 18.3431 38.3431 17 40 17Z" fill="#B4C1CD"/>
<path d="M43.4016 59.4C43.4016 61.2778 41.8793 62.8 40.0016 62.8C38.1238 62.8 36.6016 61.2778 36.6016 59.4C36.6016 57.5222 38.1238 56 40.0016 56C41.8793 56 43.4016 57.5222 43.4016 59.4Z" fill="#B4C1CD"/>
</svg>
