<svg width="18" height="19" viewBox="0 0 18 19" fill="none" xmlns="http://www.w3.org/2000/svg">
<path d="M9 19C10.2375 19 11.25 18.145 11.25 17.1H6.75C6.75 18.145 7.7625 19 9 19Z" fill="#DDDDDD"/>
<path d="M16.875 14.25H15.75V7.6C15.75 4.9495 13.6012 2.717 10.6875 2.09V1.425C10.6875 0.6365 9.93375 0 9 0C8.06625 0 7.3125 0.6365 7.3125 1.425V2.09C4.39875 2.717 2.25 4.9495 2.25 7.6V14.25H1.125C0.50625 14.25 0 14.6775 0 15.2C0 15.7225 0.50625 16.15 1.125 16.15H16.875C17.4937 16.15 18 15.7225 18 15.2C18 14.6775 17.4937 14.25 16.875 14.25Z" fill="#DDDDDD"/>
</svg>
