<svg width="18" height="18" viewBox="0 0 18 18" fill="none" xmlns="http://www.w3.org/2000/svg">
<path d="M10.3724 7.62763C9.64436 6.89986 8.65706 6.49103 7.62763 6.49103C6.59819 6.49103 5.61089 6.89986 4.88282 7.62763L2.13712 10.3724C1.40903 11.1005 1 12.088 1 13.1177C1 14.1474 1.40903 15.1349 2.13712 15.8629C2.86521 16.591 3.8527 17.0001 4.88237 17.0001C5.91204 17.0001 6.89954 16.591 7.62763 15.8629L9.00003 14.4905" stroke="#4673D2" stroke-width="2" stroke-linecap="round" stroke-linejoin="round"/>
<path d="M7.62744 10.3724C8.35551 11.1002 9.34281 11.509 10.3722 11.509C11.4017 11.509 12.389 11.1002 13.1171 10.3724L15.8628 7.62763C16.5908 6.89954 16.9999 5.91204 16.9999 4.88237C16.9999 3.8527 16.5908 2.86521 15.8628 2.13712C15.1347 1.40903 14.1472 1 13.1175 1C12.0878 1 11.1003 1.40903 10.3722 2.13712L8.99985 3.50952" stroke="#4673D2" stroke-width="2" stroke-linecap="round" stroke-linejoin="round"/>
</svg>
