<svg width="16" height="17" viewBox="0 0 16 17" fill="none" xmlns="http://www.w3.org/2000/svg">
<path d="M10.3 11.6H5V10.5L3.5 8L2.5 6V4L4 1.5L8.5 1L11.5 2.5L12.5 4V7L10.5 9L10.3 11.6Z" fill="#4673D2"/>
<path d="M4.75035 13.5H10.2496M5.5 16H9.5M4.75035 11C4.75126 9.33333 4.29299 8.91667 3.37554 8.08333C2.459 7.25 2.02272 6.40583 2.00073 5.16667C1.95765 2.625 3.83381 1 7.49997 1C11.167 1 13.0441 2.625 12.9992 5.16667C12.9781 6.40583 12.5409 7.25 11.6244 8.08333C10.7088 8.91667 10.2505 9.33333 10.2496 11" stroke="#4673D2" stroke-width="1.3" stroke-linecap="round" stroke-linejoin="round"/>
</svg>
