<svg width="48" height="48" viewBox="0 0 48 48" fill="none" xmlns="http://www.w3.org/2000/svg">
<g clip-path="url(#clip0_236_5377)">
<path fill-rule="evenodd" clip-rule="evenodd" d="M24 41C33.3888 41 41 33.3888 41 24C41 14.6112 33.3888 7 24 7C14.6112 7 7 14.6112 7 24C7 33.3888 14.6112 41 24 41ZM24 44C35.0457 44 44 35.0457 44 24C44 12.9543 35.0457 4 24 4C12.9543 4 4 12.9543 4 24C4 35.0457 12.9543 44 24 44Z" fill="current"/>
<path fill-rule="evenodd" clip-rule="evenodd" d="M24 12.5C24.8284 12.5 25.5 13.1716 25.5 14V28C25.5 28.8284 24.8284 29.5 24 29.5C23.1716 29.5 22.5 28.8284 22.5 28V14C22.5 13.1716 23.1716 12.5 24 12.5Z" fill="current"/>
<path d="M25.6998 33.7C25.6998 34.6389 24.9387 35.4 23.9998 35.4C23.0609 35.4 22.2998 34.6389 22.2998 33.7C22.2998 32.7611 23.0609 32 23.9998 32C24.9387 32 25.6998 32.7611 25.6998 33.7Z" fill="current"/>
</g>
<defs>
<clipPath id="clip0_236_5377">
<rect width="48" height="48" fill="white"/>
</clipPath>
</defs>
</svg>
