<svg width="20" height="18" viewBox="0 0 20 18" fill="none" xmlns="http://www.w3.org/2000/svg">
<path d="M1.29501 18.0001C0.194383 18.0001 -0.305903 17.2798 0.194383 16.4094L9.09948 0.652774C9.59977 -0.217591 10.4002 -0.217591 10.9005 0.652774L19.8056 16.4094C20.3059 17.2798 19.8056 18.0001 18.705 18.0001H1.29501Z" fill="#FFCE31"/>
<path d="M8.892 6.4161L9.80195 11.5448C9.89944 12.0438 10.6469 12.0438 10.7444 11.5448L11.6218 6.4161C11.7843 4.42006 8.72952 4.42006 8.892 6.4161Z" fill="#353A37"/>
<path d="M10.2575 15.7454C11.0113 15.7454 11.6224 15.1736 11.6224 14.4682C11.6224 13.7628 11.0113 13.1909 10.2575 13.1909C9.50367 13.1909 8.89258 13.7628 8.89258 14.4682C8.89258 15.1736 9.50367 15.7454 10.2575 15.7454Z" fill="#353A37"/>
</svg>
