<svg width="24" height="24" viewBox="0 0 24 24" fill="none" xmlns="http://www.w3.org/2000/svg">
<path d="M11.5 10.375C13.2786 10.375 14.7036 8.95125 14.7036 7.1875C14.7036 5.42375 13.2786 4 11.5 4C9.72143 4 8.28571 5.42375 8.28571 7.1875C8.28571 8.95125 9.72143 10.375 11.5 10.375ZM11.5 12.5C6.14286 12.5 4 14.8056 4 17.2812V20H19V17.2812C19 14.8056 16.8571 12.5 11.5 12.5Z" fill="white"/>
<path fill-rule="evenodd" clip-rule="evenodd" d="M19 3C18.6686 3 18.4 3.26863 18.4 3.6V5.4H16.6C16.2686 5.4 16 5.66863 16 6C16 6.33137 16.2686 6.6 16.6 6.6H18.4V8.4C18.4 8.73137 18.6686 9 19 9C19.3314 9 19.6 8.73137 19.6 8.4V6.6H21.4C21.7314 6.6 22 6.33137 22 6C22 5.66863 21.7314 5.4 21.4 5.4H19.6V3.6C19.6 3.26863 19.3314 3 19 3Z" fill="white"/>
</svg>
