<svg width="140" height="27" viewBox="0 0 140 27" fill="none" xmlns="http://www.w3.org/2000/svg">
<g filter="url(#filter0_d_722_4037)">
<path d="M6.54948 2.01809C7.26124 0.770304 8.58745 0 10.024 0H20.976C22.4126 0 23.7388 0.770303 24.4505 2.01809L29.8695 11.5181C30.5702 12.7465 30.5702 14.2535 29.8695 15.4819L24.4505 24.9819C23.7388 26.2297 22.4126 27 20.976 27H10.024C8.58745 27 7.26124 26.2297 6.54948 24.9819L1.13051 15.4819C0.429828 14.2535 0.429828 12.7465 1.13051 11.5181L6.54948 2.01809Z" fill="#4673D2"/>
</g>
<g clip-path="url(#clip0_722_4037)">
<path d="M22.2391 7.60201C17.5878 7.73861 15.8977 5.26108 15.8311 5.15746C15.6978 4.95492 15.3645 4.95492 15.2312 5.15746C15.2122 5.18101 13.4649 7.73861 8.82313 7.60201C8.72791 7.59259 8.63269 7.63499 8.56604 7.70093C8.49463 7.76687 8.45654 7.86107 8.45654 7.95527V13.1694C8.45654 15.7411 9.58486 18.148 11.5511 19.773C12.6127 20.6491 13.8982 21.4875 15.3693 22.2741C15.4216 22.3023 15.4788 22.3165 15.5407 22.3165C15.5978 22.3165 15.6597 22.3023 15.712 22.2741C17.2022 21.4733 18.4829 20.6349 19.5302 19.773C21.4965 18.148 22.62 15.7411 22.62 13.1694V7.95527C22.62 7.86107 22.5819 7.76687 22.5105 7.70093C22.4296 7.63499 22.3391 7.59259 22.2391 7.60201ZM21.8916 13.1694C21.8916 15.5292 20.8585 17.7382 19.0589 19.2313C18.0925 20.0273 16.9023 20.8092 15.5311 21.5581C14.1743 20.8233 12.9889 20.0415 12.0034 19.2313C10.199 17.7429 9.16591 15.5292 9.16591 13.1694V8.31324C9.17543 8.31324 9.18019 8.31324 9.18971 8.31324C12.9317 8.31324 14.8456 6.67412 15.5311 5.91579C16.2167 6.67412 18.1258 8.31324 21.8726 8.31324C21.8821 8.31324 21.8868 8.31324 21.8964 8.31324V13.1694H21.8916Z" fill="white"/>
<path d="M17.9705 12.2088H17.5519V11.0188C17.5519 9.87448 16.5923 8.93985 15.407 8.93985C14.2216 8.93985 13.262 9.86992 13.262 11.0188V12.2088H12.8434C12.4483 12.2088 12.1284 12.5188 12.1284 12.9018V17.1646C12.1284 17.5476 12.4483 17.8576 12.8434 17.8576H17.9705C18.3657 17.8576 18.6855 17.5476 18.6855 17.1646V12.9018C18.6902 12.5188 18.3657 12.2088 17.9705 12.2088ZM13.9723 11.0188C13.9723 10.2483 14.6167 9.62373 15.4117 9.62373C16.2066 9.62373 16.851 10.2483 16.851 11.0188V12.2088H13.977V11.0188H13.9723ZM17.9705 17.1783L12.834 17.1692L12.8434 12.8927H17.9705L17.98 12.9018L17.9705 17.1783Z" fill="white"/>
<path d="M15.363 14.3055C15.2099 14.3055 15.083 14.4284 15.083 14.5765V15.346C15.083 15.4941 15.2099 15.617 15.363 15.617C15.5161 15.617 15.643 15.4941 15.643 15.346V14.5765C15.643 14.4248 15.5198 14.3055 15.363 14.3055Z" fill="white"/>
</g>
<path d="M49.6455 15.8545H52.5996C52.5208 16.9001 52.2308 17.8275 51.7295 18.6367C51.2282 19.4388 50.5299 20.069 49.6348 20.5273C48.7396 20.9857 47.6546 21.2148 46.3799 21.2148C45.3988 21.2148 44.5143 21.043 43.7266 20.6992C42.946 20.3483 42.2764 19.8506 41.7178 19.2061C41.1663 18.5544 40.7438 17.7738 40.4502 16.8643C40.1566 15.9476 40.0098 14.9199 40.0098 13.7812V12.5889C40.0098 11.4502 40.1602 10.4225 40.4609 9.50586C40.7617 8.58919 41.1914 7.80859 41.75 7.16406C42.3158 6.51237 42.9925 6.01107 43.7803 5.66016C44.5752 5.30924 45.4632 5.13379 46.4443 5.13379C47.7191 5.13379 48.7969 5.37012 49.6777 5.84277C50.5586 6.30827 51.2425 6.94922 51.7295 7.76562C52.2165 8.58203 52.5101 9.52018 52.6104 10.5801H49.6562C49.599 9.92122 49.4557 9.36263 49.2266 8.9043C49.0046 8.44596 48.668 8.09863 48.2168 7.8623C47.7728 7.61882 47.182 7.49707 46.4443 7.49707C45.8714 7.49707 45.3665 7.60449 44.9297 7.81934C44.5 8.03418 44.1419 8.35645 43.8555 8.78613C43.569 9.20866 43.3542 9.73861 43.2109 10.376C43.0677 11.0062 42.9961 11.7367 42.9961 12.5674V13.7812C42.9961 14.5762 43.0605 15.2887 43.1895 15.9189C43.3184 16.5492 43.5189 17.0827 43.791 17.5195C44.0632 17.9564 44.4141 18.2894 44.8438 18.5186C45.2734 18.7477 45.7855 18.8623 46.3799 18.8623C47.1032 18.8623 47.6904 18.7477 48.1416 18.5186C48.5999 18.2894 48.9473 17.9528 49.1836 17.5088C49.4271 17.0648 49.5811 16.5133 49.6455 15.8545ZM57.5807 4.5V21H54.734V4.5H57.5807ZM65.4084 21.2148C64.5275 21.2148 63.7362 21.0716 63.0344 20.7852C62.3326 20.4987 61.7346 20.1012 61.2404 19.5928C60.7534 19.0771 60.3775 18.4792 60.1125 17.7988C59.8547 17.1113 59.7258 16.3737 59.7258 15.5859V15.1562C59.7258 14.2611 59.8547 13.4482 60.1125 12.7178C60.3703 11.9801 60.7355 11.3464 61.2082 10.8164C61.6809 10.2865 62.2466 9.87826 62.9055 9.5918C63.5643 9.30534 64.2912 9.16211 65.0861 9.16211C65.9097 9.16211 66.6366 9.30176 67.2668 9.58105C67.897 9.85319 68.4234 10.2399 68.8459 10.7412C69.2684 11.2425 69.5871 11.8441 69.802 12.5459C70.0168 13.2406 70.1242 14.0104 70.1242 14.8555V16.0479H61.0148V14.0928H67.3312V13.8779C67.3169 13.4268 67.231 13.015 67.0734 12.6426C66.9159 12.263 66.6724 11.9622 66.343 11.7402C66.0135 11.5111 65.5874 11.3965 65.0646 11.3965C64.6421 11.3965 64.2733 11.4896 63.9582 11.6758C63.6503 11.8548 63.3924 12.1126 63.1848 12.4492C62.9842 12.7786 62.8339 13.1725 62.7336 13.6309C62.6333 14.0892 62.5832 14.5977 62.5832 15.1562V15.5859C62.5832 16.0729 62.6477 16.5241 62.7766 16.9395C62.9126 17.3548 63.1096 17.7165 63.3674 18.0244C63.6324 18.3252 63.9475 18.5615 64.3127 18.7334C64.6851 18.8981 65.1076 18.9805 65.5803 18.9805C66.1747 18.9805 66.7118 18.8659 67.1916 18.6367C67.6786 18.4004 68.1011 18.0531 68.4592 17.5947L69.8879 19.0771C69.6444 19.4352 69.315 19.779 68.8996 20.1084C68.4914 20.4378 67.9973 20.7064 67.4172 20.9141C66.8371 21.1146 66.1675 21.2148 65.4084 21.2148ZM75.6316 18.8516L78.3387 9.37695H81.3035L77.3182 21H75.5135L75.6316 18.8516ZM73.6551 9.37695L76.3943 18.873L76.491 21H74.6756L70.6795 9.37695H73.6551ZM87.767 21.2148C86.8861 21.2148 86.0948 21.0716 85.393 20.7852C84.6911 20.4987 84.0932 20.1012 83.599 19.5928C83.112 19.0771 82.7361 18.4792 82.4711 17.7988C82.2133 17.1113 82.0844 16.3737 82.0844 15.5859V15.1562C82.0844 14.2611 82.2133 13.4482 82.4711 12.7178C82.7289 11.9801 83.0941 11.3464 83.5668 10.8164C84.0395 10.2865 84.6052 9.87826 85.2641 9.5918C85.9229 9.30534 86.6498 9.16211 87.4447 9.16211C88.2683 9.16211 88.9952 9.30176 89.6254 9.58105C90.2556 9.85319 90.782 10.2399 91.2045 10.7412C91.627 11.2425 91.9457 11.8441 92.1605 12.5459C92.3754 13.2406 92.4828 14.0104 92.4828 14.8555V16.0479H83.3734V14.0928H89.6898V13.8779C89.6755 13.4268 89.5896 13.015 89.432 12.6426C89.2745 12.263 89.031 11.9622 88.7016 11.7402C88.3721 11.5111 87.946 11.3965 87.4232 11.3965C87.0007 11.3965 86.6319 11.4896 86.3168 11.6758C86.0089 11.8548 85.751 12.1126 85.5434 12.4492C85.3428 12.7786 85.1924 13.1725 85.0922 13.6309C84.9919 14.0892 84.9418 14.5977 84.9418 15.1562V15.5859C84.9418 16.0729 85.0062 16.5241 85.1352 16.9395C85.2712 17.3548 85.4682 17.7165 85.726 18.0244C85.9909 18.3252 86.3061 18.5615 86.6713 18.7334C87.0437 18.8981 87.4662 18.9805 87.9389 18.9805C88.5333 18.9805 89.0704 18.8659 89.5502 18.6367C90.0372 18.4004 90.4597 18.0531 90.8178 17.5947L92.2465 19.0771C92.003 19.4352 91.6736 19.779 91.2582 20.1084C90.85 20.4378 90.3559 20.7064 89.7758 20.9141C89.1957 21.1146 88.5261 21.2148 87.767 21.2148ZM97.1201 11.751V21H94.2842V9.37695H96.9697L97.1201 11.751ZM100.654 9.30176L100.611 11.9443C100.454 11.9157 100.275 11.8942 100.074 11.8799C99.8809 11.8656 99.6982 11.8584 99.5264 11.8584C99.0895 11.8584 98.7064 11.9193 98.377 12.041C98.0475 12.1556 97.7718 12.3239 97.5498 12.5459C97.335 12.7679 97.1702 13.04 97.0557 13.3623C96.9411 13.6774 96.8766 14.0355 96.8623 14.4365L96.25 14.3613C96.25 13.6237 96.3252 12.9398 96.4756 12.3096C96.626 11.6794 96.8444 11.1279 97.1309 10.6553C97.4173 10.1826 97.7754 9.81738 98.2051 9.55957C98.6419 9.2946 99.1432 9.16211 99.709 9.16211C99.8665 9.16211 100.035 9.17643 100.214 9.20508C100.4 9.22656 100.547 9.25879 100.654 9.30176ZM114.992 12.7822V13.5879C114.992 14.7695 114.834 15.833 114.519 16.7783C114.204 17.7165 113.756 18.515 113.176 19.1738C112.596 19.8327 111.905 20.3376 111.103 20.6885C110.301 21.0394 109.409 21.2148 108.428 21.2148C107.462 21.2148 106.574 21.0394 105.764 20.6885C104.962 20.3376 104.268 19.8327 103.68 19.1738C103.093 18.515 102.638 17.7165 102.316 16.7783C101.994 15.833 101.833 14.7695 101.833 13.5879V12.7822C101.833 11.5934 101.994 10.5299 102.316 9.5918C102.638 8.65365 103.089 7.85514 103.67 7.19629C104.25 6.53027 104.941 6.02181 105.743 5.6709C106.552 5.31999 107.44 5.14453 108.407 5.14453C109.388 5.14453 110.28 5.31999 111.082 5.6709C111.884 6.02181 112.575 6.53027 113.155 7.19629C113.742 7.85514 114.193 8.65365 114.508 9.5918C114.831 10.5299 114.992 11.5934 114.992 12.7822ZM112.005 13.5879V12.7607C112.005 11.9085 111.927 11.1602 111.769 10.5156C111.612 9.86393 111.379 9.31608 111.071 8.87207C110.763 8.42806 110.383 8.09505 109.932 7.87305C109.481 7.64388 108.973 7.5293 108.407 7.5293C107.834 7.5293 107.325 7.64388 106.881 7.87305C106.445 8.09505 106.072 8.42806 105.764 8.87207C105.456 9.31608 105.22 9.86393 105.055 10.5156C104.898 11.1602 104.819 11.9085 104.819 12.7607V13.5879C104.819 14.4329 104.898 15.1813 105.055 15.833C105.22 16.4847 105.456 17.0361 105.764 17.4873C106.079 17.9313 106.459 18.2679 106.903 18.4971C107.347 18.7262 107.855 18.8408 108.428 18.8408C109.001 18.8408 109.51 18.7262 109.954 18.4971C110.398 18.2679 110.77 17.9313 111.071 17.4873C111.379 17.0361 111.612 16.4847 111.769 15.833C111.927 15.1813 112.005 14.4329 112.005 13.5879ZM120.016 11.6113V25.4688H117.169V9.37695H119.801L120.016 11.6113ZM127.482 15.0703V15.2959C127.482 16.141 127.381 16.9251 127.181 17.6484C126.988 18.3646 126.701 18.9912 126.321 19.5283C125.942 20.0583 125.469 20.4736 124.904 20.7744C124.345 21.068 123.7 21.2148 122.97 21.2148C122.254 21.2148 121.631 21.0788 121.101 20.8066C120.571 20.5273 120.123 20.1335 119.758 19.625C119.393 19.1165 119.099 18.5257 118.877 17.8525C118.662 17.1722 118.501 16.431 118.394 15.6289V14.9092C118.501 14.057 118.662 13.2835 118.877 12.5889C119.099 11.887 119.393 11.2819 119.758 10.7734C120.123 10.2578 120.567 9.86035 121.09 9.58105C121.62 9.30176 122.239 9.16211 122.948 9.16211C123.686 9.16211 124.334 9.30176 124.893 9.58105C125.459 9.86035 125.935 10.2614 126.321 10.7842C126.708 11.307 126.998 11.93 127.192 12.6533C127.385 13.3766 127.482 14.1823 127.482 15.0703ZM124.635 15.2959V15.0703C124.635 14.5547 124.588 14.0785 124.495 13.6416C124.402 13.1976 124.259 12.8109 124.066 12.4814C123.872 12.1449 123.622 11.8835 123.314 11.6973C123.006 11.5111 122.633 11.418 122.196 11.418C121.76 11.418 121.384 11.4896 121.069 11.6328C120.753 11.776 120.496 11.9801 120.295 12.2451C120.095 12.5101 119.937 12.8252 119.822 13.1904C119.715 13.5485 119.643 13.946 119.608 14.3828V16.166C119.672 16.696 119.797 17.1722 119.984 17.5947C120.17 18.0173 120.442 18.3538 120.8 18.6045C121.165 18.8551 121.638 18.9805 122.218 18.9805C122.655 18.9805 123.027 18.8838 123.335 18.6904C123.643 18.4971 123.894 18.2321 124.087 17.8955C124.28 17.5518 124.42 17.1579 124.506 16.7139C124.592 16.2699 124.635 15.7972 124.635 15.2959ZM135.846 17.8203C135.846 17.5768 135.782 17.3584 135.653 17.165C135.524 16.9717 135.281 16.7962 134.923 16.6387C134.572 16.474 134.056 16.32 133.376 16.1768C132.774 16.0479 132.219 15.8867 131.711 15.6934C131.202 15.5 130.765 15.2673 130.4 14.9951C130.035 14.7158 129.748 14.39 129.541 14.0176C129.34 13.638 129.24 13.2012 129.24 12.707C129.24 12.2272 129.344 11.776 129.552 11.3535C129.759 10.9238 130.06 10.5479 130.454 10.2256C130.848 9.89616 131.328 9.63835 131.893 9.45215C132.459 9.25879 133.096 9.16211 133.805 9.16211C134.794 9.16211 135.642 9.32324 136.351 9.64551C137.068 9.96777 137.615 10.4118 137.995 10.9775C138.374 11.5361 138.564 12.1663 138.564 12.8682H135.728C135.728 12.5602 135.657 12.2809 135.513 12.0303C135.377 11.7796 135.166 11.5791 134.88 11.4287C134.593 11.2712 134.232 11.1924 133.795 11.1924C133.401 11.1924 133.068 11.2568 132.796 11.3857C132.531 11.5146 132.33 11.6829 132.194 11.8906C132.058 12.0983 131.99 12.3275 131.99 12.5781C131.99 12.7643 132.026 12.9326 132.097 13.083C132.176 13.2262 132.302 13.3587 132.473 13.4805C132.645 13.6022 132.878 13.7132 133.172 13.8135C133.472 13.9137 133.841 14.0104 134.278 14.1035C135.145 14.2754 135.9 14.5046 136.545 14.791C137.196 15.0703 137.705 15.4427 138.07 15.9082C138.435 16.3737 138.618 16.9681 138.618 17.6914C138.618 18.207 138.507 18.6797 138.285 19.1094C138.063 19.5319 137.741 19.9007 137.318 20.2158C136.896 20.5309 136.391 20.778 135.804 20.957C135.216 21.1289 134.554 21.2148 133.816 21.2148C132.749 21.2148 131.847 21.0251 131.109 20.6455C130.372 20.2588 129.813 19.7718 129.433 19.1846C129.054 18.5902 128.864 17.9743 128.864 17.3369H131.582C131.603 17.7881 131.725 18.1497 131.947 18.4219C132.169 18.694 132.448 18.891 132.785 19.0127C133.129 19.1273 133.49 19.1846 133.87 19.1846C134.3 19.1846 134.661 19.1273 134.955 19.0127C135.248 18.891 135.471 18.7298 135.621 18.5293C135.771 18.3216 135.846 18.0853 135.846 17.8203Z" fill="#222222"/>
<defs>
<filter id="filter0_d_722_4037" x="-44.395" y="-20" width="119.79" height="117" filterUnits="userSpaceOnUse" color-interpolation-filters="sRGB">
<feFlood flood-opacity="0" result="BackgroundImageFix"/>
<feColorMatrix in="SourceAlpha" type="matrix" values="0 0 0 0 0 0 0 0 0 0 0 0 0 0 0 0 0 0 127 0" result="hardAlpha"/>
<feOffset dy="25"/>
<feGaussianBlur stdDeviation="22.5"/>
<feComposite in2="hardAlpha" operator="out"/>
<feColorMatrix type="matrix" values="0 0 0 0 0.623529 0 0 0 0 0.662745 0 0 0 0 0.772549 0 0 0 0.45 0"/>
<feBlend mode="normal" in2="BackgroundImageFix" result="effect1_dropShadow_722_4037"/>
<feBlend mode="normal" in="SourceGraphic" in2="effect1_dropShadow_722_4037" result="shape"/>
</filter>
<clipPath id="clip0_722_4037">
<rect width="17.3109" height="17.3109" fill="white" transform="translate(6.88281 5.00555)"/>
</clipPath>
</defs>
</svg>
