<svg width="100" height="25" viewBox="0 0 100 25" fill="none" xmlns="http://www.w3.org/2000/svg">
<rect width="100" height="25" rx="5" fill="#23C3AF"/>
<path d="M17.9084 14.061H19.1271C19.0637 14.645 18.8965 15.1676 18.6257 15.6289C18.3548 16.0902 17.9719 16.4562 17.4768 16.7271C16.9816 16.9937 16.3638 17.127 15.6232 17.127C15.0816 17.127 14.5886 17.0254 14.1442 16.8223C13.7041 16.6191 13.3254 16.3314 13.008 15.959C12.6906 15.5824 12.4452 15.1317 12.2717 14.6069C12.1024 14.078 12.0178 13.4897 12.0178 12.8423V11.9219C12.0178 11.2744 12.1024 10.6883 12.2717 10.1636C12.4452 9.6346 12.6927 9.1818 13.0144 8.80518C13.3402 8.42855 13.7316 8.13867 14.1887 7.93555C14.6457 7.73242 15.1599 7.63086 15.7312 7.63086C16.4294 7.63086 17.0197 7.76204 17.5021 8.02441C17.9846 8.28678 18.3591 8.65072 18.6257 9.11621C18.8965 9.57747 19.0637 10.1128 19.1271 10.7222H17.9084C17.8492 10.2905 17.7391 9.92025 17.5783 9.61133C17.4175 9.29818 17.189 9.05697 16.8928 8.8877C16.5965 8.71842 16.2093 8.63379 15.7312 8.63379C15.3207 8.63379 14.9589 8.71208 14.6457 8.86865C14.3368 9.02523 14.0765 9.2474 13.8649 9.53516C13.6576 9.82292 13.501 10.1678 13.3952 10.5698C13.2894 10.9718 13.2365 11.4183 13.2365 11.9092V12.8423C13.2365 13.2951 13.2831 13.7204 13.3762 14.1182C13.4735 14.516 13.6195 14.8651 13.8142 15.1655C14.0088 15.466 14.2564 15.703 14.5568 15.8765C14.8573 16.0457 15.2128 16.1304 15.6232 16.1304C16.1437 16.1304 16.5585 16.0479 16.8674 15.8828C17.1763 15.7178 17.409 15.4808 17.5656 15.1719C17.7264 14.863 17.8407 14.4927 17.9084 14.061ZM24.521 15.4131V10.1318H25.7017V17H24.5781L24.521 15.4131ZM24.7432 13.9658L25.2319 13.9531C25.2319 14.4102 25.1833 14.8333 25.0859 15.2227C24.9928 15.6077 24.8405 15.9421 24.6289 16.2256C24.4173 16.5091 24.1401 16.7313 23.7974 16.8921C23.4546 17.0487 23.0378 17.127 22.5469 17.127C22.2126 17.127 21.9058 17.0783 21.6265 16.981C21.3514 16.8836 21.1144 16.7334 20.9155 16.5303C20.7166 16.3271 20.5622 16.0627 20.4521 15.7368C20.3464 15.411 20.2935 15.0195 20.2935 14.5625V10.1318H21.4678V14.5752C21.4678 14.8841 21.5016 15.1401 21.5693 15.3433C21.6413 15.5422 21.7365 15.7008 21.855 15.8193C21.9777 15.9336 22.1131 16.014 22.2612 16.0605C22.4136 16.1071 22.5701 16.1304 22.731 16.1304C23.2303 16.1304 23.626 16.0352 23.918 15.8447C24.21 15.6501 24.4194 15.3898 24.5464 15.064C24.6776 14.7339 24.7432 14.3678 24.7432 13.9658ZM28.366 11.2109V17H27.1917V10.1318H28.3343L28.366 11.2109ZM30.5115 10.0938L30.5052 11.1855C30.4078 11.1644 30.3147 11.1517 30.2259 11.1475C30.1412 11.139 30.0439 11.1348 29.9339 11.1348C29.6631 11.1348 29.424 11.1771 29.2166 11.2617C29.0092 11.3464 28.8336 11.4648 28.6897 11.6172C28.5459 11.7695 28.4316 11.9515 28.347 12.1631C28.2666 12.3704 28.2137 12.599 28.1883 12.8486L27.8582 13.0391C27.8582 12.6243 27.8984 12.235 27.9788 11.8711C28.0634 11.5072 28.1925 11.1855 28.366 10.9062C28.5395 10.6227 28.7596 10.4027 29.0262 10.2461C29.297 10.0853 29.6186 10.0049 29.991 10.0049C30.0756 10.0049 30.173 10.0155 30.283 10.0366C30.393 10.0535 30.4692 10.0726 30.5115 10.0938ZM32.4713 11.2109V17H31.297V10.1318H32.4396L32.4713 11.2109ZM34.6168 10.0938L34.6104 11.1855C34.5131 11.1644 34.42 11.1517 34.3312 11.1475C34.2465 11.139 34.1492 11.1348 34.0392 11.1348C33.7683 11.1348 33.5292 11.1771 33.3219 11.2617C33.1145 11.3464 32.9389 11.4648 32.795 11.6172C32.6511 11.7695 32.5369 11.9515 32.4522 12.1631C32.3718 12.3704 32.3189 12.599 32.2936 12.8486L31.9635 13.0391C31.9635 12.6243 32.0037 12.235 32.0841 11.8711C32.1687 11.5072 32.2978 11.1855 32.4713 10.9062C32.6448 10.6227 32.8648 10.4027 33.1314 10.2461C33.4023 10.0853 33.7239 10.0049 34.0963 10.0049C34.1809 10.0049 34.2783 10.0155 34.3883 10.0366C34.4983 10.0535 34.5745 10.0726 34.6168 10.0938ZM38.1254 17.127C37.6472 17.127 37.2134 17.0465 36.8241 16.8857C36.439 16.7207 36.1068 16.4901 35.8275 16.1938C35.5525 15.8976 35.3409 15.5464 35.1928 15.1401C35.0447 14.7339 34.9706 14.2896 34.9706 13.8071V13.5405C34.9706 12.9819 35.0531 12.4847 35.2182 12.0488C35.3832 11.6087 35.6075 11.2363 35.891 10.9316C36.1745 10.627 36.4962 10.3963 36.8559 10.2397C37.2156 10.0832 37.588 10.0049 37.973 10.0049C38.4639 10.0049 38.8871 10.0895 39.2426 10.2588C39.6023 10.4281 39.8964 10.665 40.1249 10.9697C40.3534 11.2702 40.5227 11.6257 40.6327 12.0361C40.7427 12.4424 40.7978 12.8867 40.7978 13.3691V13.896H35.6688V12.9375H39.6234V12.8486C39.6065 12.5439 39.543 12.2477 39.433 11.96C39.3272 11.6722 39.1579 11.4352 38.9252 11.249C38.6924 11.0628 38.3751 10.9697 37.973 10.9697C37.7064 10.9697 37.461 11.0269 37.2367 11.1411C37.0124 11.2511 36.8199 11.4162 36.6591 11.6362C36.4983 11.8563 36.3734 12.125 36.2846 12.4424C36.1957 12.7598 36.1513 13.1258 36.1513 13.5405V13.8071C36.1513 14.133 36.1957 14.4398 36.2846 14.7275C36.3777 15.0111 36.511 15.2607 36.6845 15.4766C36.8622 15.6924 37.0759 15.8617 37.3256 15.9844C37.5795 16.1071 37.8673 16.1685 38.1889 16.1685C38.6036 16.1685 38.9548 16.0838 39.2426 15.9146C39.5303 15.7453 39.7821 15.5189 39.9979 15.2354L40.7089 15.8003C40.5608 16.0246 40.3725 16.2383 40.1439 16.4414C39.9154 16.6445 39.634 16.8096 39.2997 16.9365C38.9696 17.0635 38.5782 17.127 38.1254 17.127ZM43.0432 11.5981V17H41.8688V10.1318H42.9797L43.0432 11.5981ZM42.7639 13.3057L42.2751 13.2866C42.2793 12.8169 42.3492 12.3831 42.4846 11.9854C42.62 11.5833 42.8104 11.2342 43.0559 10.938C43.3013 10.6418 43.5933 10.4132 43.9318 10.2524C44.2746 10.0874 44.6534 10.0049 45.0681 10.0049C45.4066 10.0049 45.7113 10.0514 45.9821 10.1445C46.253 10.2334 46.4836 10.3773 46.674 10.5762C46.8687 10.7751 47.0168 11.0332 47.1184 11.3506C47.2199 11.6637 47.2707 12.0467 47.2707 12.4995V17H46.09V12.4868C46.09 12.1271 46.0371 11.8394 45.9313 11.6235C45.8256 11.4035 45.6711 11.2448 45.468 11.1475C45.2648 11.0459 45.0152 10.9951 44.7189 10.9951C44.427 10.9951 44.1604 11.0565 43.9191 11.1792C43.6822 11.3019 43.4769 11.4712 43.3034 11.687C43.1341 11.9028 43.0008 12.1504 42.9035 12.4297C42.8104 12.7048 42.7639 12.9967 42.7639 13.3057ZM51.6299 10.1318V11.0332H47.9165V10.1318H51.6299ZM49.1733 8.4624H50.3477V15.2988C50.3477 15.5316 50.3836 15.7072 50.4556 15.8257C50.5275 15.9442 50.6206 16.0225 50.7349 16.0605C50.8491 16.0986 50.9718 16.1177 51.103 16.1177C51.2004 16.1177 51.3019 16.1092 51.4077 16.0923C51.5177 16.0711 51.6003 16.0542 51.6553 16.0415L51.6616 17C51.5685 17.0296 51.4458 17.0571 51.2935 17.0825C51.1453 17.1121 50.9655 17.127 50.7539 17.127C50.4661 17.127 50.2017 17.0698 49.9604 16.9556C49.7192 16.8413 49.5267 16.6509 49.3828 16.3843C49.2432 16.1134 49.1733 15.7495 49.1733 15.2925V8.4624ZM56.7999 11.4966V17H55.6192V10.1318H56.7364L56.7999 11.4966ZM56.5587 13.3057L56.0128 13.2866C56.017 12.8169 56.0784 12.3831 56.1969 11.9854C56.3154 11.5833 56.491 11.2342 56.7237 10.938C56.9565 10.6418 57.2464 10.4132 57.5934 10.2524C57.9404 10.0874 58.3424 10.0049 58.7994 10.0049C59.121 10.0049 59.4173 10.0514 59.6881 10.1445C59.9589 10.2334 60.1938 10.3752 60.3927 10.5698C60.5916 10.7645 60.746 11.0142 60.8561 11.3188C60.9661 11.6235 61.0211 11.9917 61.0211 12.4233V17H59.8468V12.4805C59.8468 12.1208 59.7854 11.833 59.6627 11.6172C59.5442 11.4014 59.3749 11.2448 59.1549 11.1475C58.9348 11.0459 58.6767 10.9951 58.3805 10.9951C58.0335 10.9951 57.7436 11.0565 57.5108 11.1792C57.2781 11.3019 57.0919 11.4712 56.9522 11.687C56.8126 11.9028 56.711 12.1504 56.6476 12.4297C56.5883 12.7048 56.5587 12.9967 56.5587 13.3057ZM61.0084 12.6582L60.2213 12.8994C60.2255 12.5228 60.2869 12.161 60.4054 11.814C60.5281 11.467 60.7037 11.158 60.9322 10.8872C61.165 10.6164 61.4506 10.4027 61.7892 10.2461C62.1277 10.0853 62.5149 10.0049 62.9508 10.0049C63.3189 10.0049 63.6448 10.0535 63.9283 10.1509C64.2161 10.2482 64.4573 10.3984 64.652 10.6016C64.8508 10.8005 65.0011 11.0565 65.1026 11.3696C65.2042 11.6828 65.255 12.0552 65.255 12.4868V17H64.0743V12.4741C64.0743 12.089 64.013 11.7907 63.8902 11.5791C63.7717 11.3633 63.6025 11.2131 63.3824 11.1284C63.1666 11.0396 62.9085 10.9951 62.608 10.9951C62.3499 10.9951 62.1214 11.0396 61.9225 11.1284C61.7236 11.2173 61.5564 11.34 61.421 11.4966C61.2856 11.6489 61.1819 11.8245 61.11 12.0234C61.0423 12.2223 61.0084 12.4339 61.0084 12.6582ZM66.4213 13.6421V13.4961C66.4213 13.001 66.4932 12.5418 66.6371 12.1187C66.781 11.6912 66.9883 11.321 67.2592 11.0078C67.53 10.6904 67.858 10.445 68.2431 10.2715C68.6282 10.0938 69.0598 10.0049 69.538 10.0049C70.0204 10.0049 70.4542 10.0938 70.8393 10.2715C71.2286 10.445 71.5587 10.6904 71.8295 11.0078C72.1046 11.321 72.314 11.6912 72.4579 12.1187C72.6018 12.5418 72.6737 13.001 72.6737 13.4961V13.6421C72.6737 14.1372 72.6018 14.5964 72.4579 15.0195C72.314 15.4427 72.1046 15.813 71.8295 16.1304C71.5587 16.4435 71.2307 16.689 70.8456 16.8667C70.4647 17.0402 70.0331 17.127 69.5507 17.127C69.0683 17.127 68.6345 17.0402 68.2494 16.8667C67.8643 16.689 67.5342 16.4435 67.2592 16.1304C66.9883 15.813 66.781 15.4427 66.6371 15.0195C66.4932 14.5964 66.4213 14.1372 66.4213 13.6421ZM67.5956 13.4961V13.6421C67.5956 13.9849 67.6358 14.3086 67.7162 14.6133C67.7966 14.9137 67.9172 15.1803 68.078 15.4131C68.2431 15.6458 68.4483 15.8299 68.6937 15.9653C68.9392 16.0965 69.2248 16.1621 69.5507 16.1621C69.8723 16.1621 70.1537 16.0965 70.3949 15.9653C70.6404 15.8299 70.8435 15.6458 71.0043 15.4131C71.1651 15.1803 71.2857 14.9137 71.3661 14.6133C71.4507 14.3086 71.4931 13.9849 71.4931 13.6421V13.4961C71.4931 13.1576 71.4507 12.8381 71.3661 12.5376C71.2857 12.2329 71.163 11.9642 70.9979 11.7314C70.8371 11.4945 70.634 11.3083 70.3886 11.1729C70.1474 11.0374 69.8638 10.9697 69.538 10.9697C69.2164 10.9697 68.9328 11.0374 68.6874 11.1729C68.4462 11.3083 68.2431 11.4945 68.078 11.7314C67.9172 11.9642 67.7966 12.2329 67.7162 12.5376C67.6358 12.8381 67.5956 13.1576 67.5956 13.4961ZM78.1755 15.667V7.25H79.3562V17H78.2771L78.1755 15.667ZM73.5544 13.6421V13.5088C73.5544 12.984 73.6179 12.508 73.7448 12.0806C73.876 11.6489 74.0601 11.2786 74.2971 10.9697C74.5383 10.6608 74.8239 10.4238 75.154 10.2588C75.4883 10.0895 75.8607 10.0049 76.2712 10.0049C76.7028 10.0049 77.0795 10.0811 77.4011 10.2334C77.7269 10.3815 78.002 10.5994 78.2263 10.8872C78.4548 11.1707 78.6346 11.5135 78.7658 11.9155C78.897 12.3175 78.988 12.7725 79.0388 13.2803V13.8643C78.9922 14.3678 78.9012 14.8206 78.7658 15.2227C78.6346 15.6247 78.4548 15.9674 78.2263 16.251C78.002 16.5345 77.7269 16.7524 77.4011 16.9048C77.0752 17.0529 76.6944 17.127 76.2585 17.127C75.8565 17.127 75.4883 17.0402 75.154 16.8667C74.8239 16.6932 74.5383 16.4499 74.2971 16.1367C74.0601 15.8236 73.876 15.4554 73.7448 15.0322C73.6179 14.6048 73.5544 14.1414 73.5544 13.6421ZM74.7351 13.5088V13.6421C74.7351 13.9849 74.7689 14.3065 74.8366 14.6069C74.9086 14.9074 75.0186 15.1719 75.1667 15.4004C75.3148 15.6289 75.5031 15.8088 75.7316 15.9399C75.9602 16.0669 76.2331 16.1304 76.5505 16.1304C76.9398 16.1304 77.2593 16.0479 77.509 15.8828C77.7629 15.7178 77.966 15.4998 78.1184 15.229C78.2707 14.9582 78.3892 14.6641 78.4738 14.3467V12.8169C78.423 12.5841 78.349 12.3599 78.2517 12.144C78.1586 11.924 78.0358 11.7293 77.8835 11.5601C77.7354 11.3866 77.5513 11.249 77.3312 11.1475C77.1154 11.0459 76.8594 10.9951 76.5632 10.9951C76.2416 10.9951 75.9644 11.0628 75.7316 11.1982C75.5031 11.3294 75.3148 11.5114 75.1667 11.7441C75.0186 11.9727 74.9086 12.2393 74.8366 12.5439C74.7689 12.8444 74.7351 13.166 74.7351 13.5088ZM83.7344 17.127C83.2562 17.127 82.8224 17.0465 82.4331 16.8857C82.048 16.7207 81.7158 16.4901 81.4365 16.1938C81.1615 15.8976 80.9499 15.5464 80.8018 15.1401C80.6536 14.7339 80.5796 14.2896 80.5796 13.8071V13.5405C80.5796 12.9819 80.6621 12.4847 80.8271 12.0488C80.9922 11.6087 81.2165 11.2363 81.5 10.9316C81.7835 10.627 82.1051 10.3963 82.4648 10.2397C82.8245 10.0832 83.1969 10.0049 83.582 10.0049C84.0729 10.0049 84.4961 10.0895 84.8516 10.2588C85.2113 10.4281 85.5054 10.665 85.7339 10.9697C85.9624 11.2702 86.1317 11.6257 86.2417 12.0361C86.3517 12.4424 86.4067 12.8867 86.4067 13.3691V13.896H81.2778V12.9375H85.2324V12.8486C85.2155 12.5439 85.152 12.2477 85.042 11.96C84.9362 11.6722 84.7669 11.4352 84.5342 11.249C84.3014 11.0628 83.984 10.9697 83.582 10.9697C83.3154 10.9697 83.07 11.0269 82.8457 11.1411C82.6214 11.2511 82.4289 11.4162 82.2681 11.6362C82.1073 11.8563 81.9824 12.125 81.8936 12.4424C81.8047 12.7598 81.7603 13.1258 81.7603 13.5405V13.8071C81.7603 14.133 81.8047 14.4398 81.8936 14.7275C81.9867 15.0111 82.12 15.2607 82.2935 15.4766C82.4712 15.6924 82.6849 15.8617 82.9346 15.9844C83.1885 16.1071 83.4762 16.1685 83.7979 16.1685C84.2126 16.1685 84.5638 16.0838 84.8516 15.9146C85.1393 15.7453 85.3911 15.5189 85.6069 15.2354L86.3179 15.8003C86.1698 16.0246 85.9814 16.2383 85.7529 16.4414C85.5244 16.6445 85.243 16.8096 84.9087 16.9365C84.5786 17.0635 84.1872 17.127 83.7344 17.127ZM88.7537 7.25V17H87.573V7.25H88.7537Z" fill="white"/>
</svg>
