<svg width="16" height="17" viewBox="0 0 16 17" fill="none" xmlns="http://www.w3.org/2000/svg">
<path d="M13.375 7H11.625C10.8271 7 10.3205 6.80086 10.0098 6.4902C9.69914 6.17954 9.5 5.67293 9.5 4.875V3.125C9.5 2.32707 9.69914 1.82046 10.0098 1.5098C10.3205 1.19914 10.8271 1 11.625 1H13.375C14.1729 1 14.6795 1.19914 14.9902 1.5098C15.3009 1.82046 15.5 2.32707 15.5 3.125V4.875C15.5 5.67293 15.3009 6.17954 14.9902 6.4902C14.6795 6.80086 14.1729 7 13.375 7Z" fill="#4673D2" stroke="#4673D2" stroke-miterlimit="10" stroke-linecap="round" stroke-linejoin="round"/>
<path d="M4.375 16H2.625C1.82707 16 1.32046 15.8009 1.0098 15.4902C0.699143 15.1795 0.5 14.6729 0.5 13.875V12.125C0.5 11.3271 0.699143 10.8205 1.0098 10.5098C1.32046 10.1991 1.82707 10 2.625 10H4.375C5.17293 10 5.67954 10.1991 5.9902 10.5098C6.30086 10.8205 6.5 11.3271 6.5 12.125V13.875C6.5 14.6729 6.30086 15.1795 5.9902 15.4902C5.67954 15.8009 5.17293 16 4.375 16Z" fill="#4673D2" stroke="#4673D2" stroke-miterlimit="10" stroke-linecap="round" stroke-linejoin="round"/>
<path d="M6.5 4C6.5 5.65685 5.15685 7 3.5 7C1.84315 7 0.5 5.65685 0.5 4C0.5 2.34315 1.84315 1 3.5 1C5.15685 1 6.5 2.34315 6.5 4Z" fill="#4673D2" stroke="#4673D2" stroke-miterlimit="10" stroke-linecap="round" stroke-linejoin="round"/>
<path d="M15.5 13C15.5 14.6569 14.1569 16 12.5 16C10.8431 16 9.5 14.6569 9.5 13C9.5 11.3431 10.8431 10 12.5 10C14.1569 10 15.5 11.3431 15.5 13Z" fill="#4673D2" stroke="#4673D2" stroke-miterlimit="10" stroke-linecap="round" stroke-linejoin="round"/>
</svg>
