<svg width="24" height="24" viewBox="0 0 24 24" fill="none" xmlns="http://www.w3.org/2000/svg">
<path fill-rule="evenodd" clip-rule="evenodd" d="M22 5C22 3.89543 21.1046 3 20 3H4C2.89543 3 2 3.89543 2 5V20C2 21.1046 2.89543 22 4 22H20C21.1046 22 22 21.1046 22 20V5ZM21 9.75C21 8.64543 20.1046 7.75 19 7.75H5C3.89543 7.75 3 8.64543 3 9.75V19.05C3 20.1546 3.89543 21.05 5 21.05H19C20.1046 21.05 21 20.1546 21 19.05V9.75ZM6 11H8V13H6V11ZM13 11H11V13H13V11ZM16 11H18V13H16V11ZM8 16H6V18H8V16ZM11 16H13V18H11V16ZM18 16H16V18H18V16Z" fill="#4673D2"/>
</svg>
