<svg width="16" height="19" viewBox="0 0 16 19" fill="none" xmlns="http://www.w3.org/2000/svg">
<path d="M4.36004 0C3.95754 0 3.63182 0.327344 3.63182 0.731848C3.63182 1.13635 3.95754 1.4637 4.36004 1.4637H11.633C12.0355 1.4637 12.3612 1.13635 12.3612 0.731848C12.3612 0.327344 12.0355 0 11.6353 0H4.36004ZM1.09117 2.92272C0.486259 2.92272 0 3.4114 0 4.01932C0 4.62725 0.486259 5.11592 1.09117 5.11592H1.45412V16.8045C1.45412 18.0063 2.44293 19 3.6388 19H12.3612C13.5571 19 14.5459 18.0063 14.5459 16.8045V5.11592H14.9088C15.5137 5.11592 16 4.62725 16 4.01932C16 3.4114 15.5137 2.92272 14.9088 2.92272H1.09117ZM5.81184 8.76581C6.22132 8.76114 6.55402 9.09783 6.54704 9.51169V16.0843C6.5261 17.0359 5.11386 17.0359 5.09292 16.0843V9.51169C5.08594 9.13525 5.36513 8.81491 5.73506 8.77283C5.76065 8.77049 5.78624 8.76581 5.81184 8.76581ZM10.1696 8.76581C10.579 8.76114 10.9117 9.09783 10.9048 9.51169V16.0843C10.9048 17.0593 9.44831 17.0593 9.44831 16.0843V9.51169C9.44133 9.13525 9.72052 8.81491 10.0928 8.77283C10.1184 8.77049 10.144 8.76581 10.1696 8.76581Z" fill="#999999"/>
</svg>
