<svg width="15" height="17" viewBox="0 0 15 17" fill="none" xmlns="http://www.w3.org/2000/svg">
<path d="M13.9091 2.21429H11.2727V1.64286C11.2727 1.33975 11.1578 1.04906 10.9532 0.834735C10.7486 0.620408 10.4711 0.5 10.1818 0.5H4.81818C4.52885 0.5 4.25138 0.620408 4.04679 0.834735C3.84221 1.04906 3.72727 1.33975 3.72727 1.64286V2.21429H1.09091C0.801582 2.21429 0.524105 2.33469 0.31952 2.54902C0.114935 2.76335 0 3.05404 0 3.35714V15.3571C0 15.6602 0.114935 15.9509 0.31952 16.1653C0.524105 16.3796 0.801582 16.5 1.09091 16.5H13.9091C14.1984 16.5 14.4759 16.3796 14.6805 16.1653C14.8851 15.9509 15 15.6602 15 15.3571V3.35714C15 3.05404 14.8851 2.76335 14.6805 2.54902C14.4759 2.33469 14.1984 2.21429 13.9091 2.21429ZM4.81818 1.64286H10.1818V3.92857H4.81818V1.64286Z" fill="#4673D2"/>
<path d="M4 9.41667H9.33333V10.5833H4V9.41667ZM4 6.5H12V7.66667H4V6.5ZM4 12.3333H7.33333V13.5H4V12.3333Z" fill="white"/>
<rect x="4.7998" y="1.64999" width="5.4" height="2.3" fill="white"/>
</svg>
