<svg width="30" height="25" viewBox="0 0 30 25" fill="none" xmlns="http://www.w3.org/2000/svg">
<path d="M29.7059 0.735294H8.23529C8.07353 0.735294 7.94118 0.867647 7.94118 1.02941V3.08824C7.94118 3.25 8.07353 3.38235 8.23529 3.38235H29.7059C29.8676 3.38235 30 3.25 30 3.08824V1.02941C30 0.867647 29.8676 0.735294 29.7059 0.735294ZM29.7059 11.1765H8.23529C8.07353 11.1765 7.94118 11.3088 7.94118 11.4706V13.5294C7.94118 13.6912 8.07353 13.8235 8.23529 13.8235H29.7059C29.8676 13.8235 30 13.6912 30 13.5294V11.4706C30 11.3088 29.8676 11.1765 29.7059 11.1765ZM29.7059 21.6176H8.23529C8.07353 21.6176 7.94118 21.75 7.94118 21.9118V23.9706C7.94118 24.1324 8.07353 24.2647 8.23529 24.2647H29.7059C29.8676 24.2647 30 24.1324 30 23.9706V21.9118C30 21.75 29.8676 21.6176 29.7059 21.6176ZM0 2.05882C-4.02881e-09 2.32919 0.0532531 2.59691 0.156719 2.8467C0.260184 3.09649 0.411836 3.32345 0.603016 3.51463C0.794195 3.70581 1.02116 3.85746 1.27095 3.96093C1.52073 4.06439 1.78846 4.11765 2.05882 4.11765C2.32919 4.11765 2.59691 4.06439 2.8467 3.96093C3.09649 3.85746 3.32345 3.70581 3.51463 3.51463C3.70581 3.32345 3.85746 3.09649 3.96093 2.8467C4.06439 2.59691 4.11765 2.32919 4.11765 2.05882C4.11765 1.78846 4.06439 1.52073 3.96093 1.27095C3.85746 1.02116 3.70581 0.794195 3.51463 0.603016C3.32345 0.411836 3.09649 0.260184 2.8467 0.156718C2.59691 0.0532529 2.32919 0 2.05882 0C1.78846 0 1.52073 0.0532529 1.27095 0.156718C1.02116 0.260184 0.794195 0.411836 0.603016 0.603016C0.411836 0.794195 0.260184 1.02116 0.156719 1.27095C0.0532531 1.52073 -4.0288e-09 1.78846 0 2.05882ZM0 12.5C-4.02881e-09 12.7704 0.0532531 13.0381 0.156719 13.2879C0.260184 13.5377 0.411836 13.7646 0.603016 13.9558C0.794195 14.147 1.02116 14.2986 1.27095 14.4021C1.52073 14.5056 1.78846 14.5588 2.05882 14.5588C2.32919 14.5588 2.59691 14.5056 2.8467 14.4021C3.09649 14.2986 3.32345 14.147 3.51463 13.9558C3.70581 13.7646 3.85746 13.5377 3.96093 13.2879C4.06439 13.0381 4.11765 12.7704 4.11765 12.5C4.11765 12.2296 4.06439 11.9619 3.96093 11.7121C3.85746 11.4623 3.70581 11.2354 3.51463 11.0442C3.32345 10.853 3.09649 10.7014 2.8467 10.5979C2.59691 10.4944 2.32919 10.4412 2.05882 10.4412C1.78846 10.4412 1.52073 10.4944 1.27095 10.5979C1.02116 10.7014 0.794195 10.853 0.603016 11.0442C0.411836 11.2354 0.260184 11.4623 0.156719 11.7121C0.0532531 11.9619 -4.0288e-09 12.2296 0 12.5ZM0 22.9412C-4.02881e-09 23.2115 0.0532531 23.4793 0.156719 23.7291C0.260184 23.9788 0.411836 24.2058 0.603016 24.397C0.794195 24.5882 1.02116 24.7398 1.27095 24.8433C1.52073 24.9467 1.78846 25 2.05882 25C2.32919 25 2.59691 24.9467 2.8467 24.8433C3.09649 24.7398 3.32345 24.5882 3.51463 24.397C3.70581 24.2058 3.85746 23.9788 3.96093 23.7291C4.06439 23.4793 4.11765 23.2115 4.11765 22.9412C4.11765 22.6708 4.06439 22.4031 3.96093 22.1533C3.85746 21.9035 3.70581 21.6765 3.51463 21.4854C3.32345 21.2942 3.09649 21.1425 2.8467 21.0391C2.59691 20.9356 2.32919 20.8824 2.05882 20.8824C1.78846 20.8824 1.52073 20.9356 1.27095 21.0391C1.02116 21.1425 0.794195 21.2942 0.603016 21.4854C0.411836 21.6765 0.260184 21.9035 0.156719 22.1533C0.0532531 22.4031 -4.0288e-09 22.6708 0 22.9412Z" fill="#8B97A8"/>
</svg>
