<svg width="35" height="35" viewBox="0 0 35 35" fill="none" xmlns="http://www.w3.org/2000/svg">
<path d="M17.4999 32.0834C19.1041 32.0834 20.4166 30.7709 20.4166 29.1667H14.5833C14.5833 30.7709 15.8812 32.0834 17.4999 32.0834ZM26.8357 22.4608C26.4606 22.0857 26.2499 21.577 26.2499 21.0466V15.3125C26.2499 10.8354 23.8583 7.08752 19.6874 6.09585V5.10419C19.6874 3.89377 18.7103 2.91669 17.4999 2.91669C16.2895 2.91669 15.3124 3.89377 15.3124 5.10419V6.09585C11.127 7.08752 8.74992 10.8209 8.74992 15.3125V21.0466C8.74992 21.577 8.5392 22.0857 8.16413 22.4608L6.13528 24.4897C5.9419 24.683 5.83325 24.9453 5.83325 25.2188C5.83325 25.7883 6.29493 26.25 6.86445 26.25H28.1354C28.7049 26.25 29.1666 25.7883 29.1666 25.2188C29.1666 24.9453 29.0579 24.683 28.8646 24.4897L26.8357 22.4608Z" fill="white"/>
</svg>
