<svg width="14" height="14" viewBox="0 0 14 14" fill="none" xmlns="http://www.w3.org/2000/svg">
<path fill-rule="evenodd" clip-rule="evenodd" d="M1.57019 -0.000793477C1.99765 0.00666822 2.33925 0.357368 2.33365 0.786415V1.81427C3.59739 0.674492 5.25125 0.0122659 7.00219 0.0122659C10.8587 0.0122659 14.0003 3.15177 14.0003 7.00574C14.0003 10.8597 10.8587 13.9992 7.00219 13.9992C3.14565 13.9992 0.00405405 10.8597 0.00405405 7.00574C-0.0332793 6.57855 0.284054 6.20174 0.711521 6.16443C1.13899 6.12713 1.51605 6.44424 1.55339 6.87142C1.55712 6.91619 1.55712 6.96097 1.55339 7.00574C1.55339 10.0203 3.98565 12.4453 7.00219 12.4453C10.0187 12.4453 12.4454 10.0203 12.4454 7.00574C12.4454 3.99121 10.0187 1.56616 7.00219 1.56616C5.56299 1.56616 4.21525 2.14258 3.21472 3.12006H4.66325C5.09259 3.12006 5.44165 3.46889 5.44165 3.89794C5.44165 4.32699 5.09259 4.67582 4.66325 4.67582H1.55899C1.12965 4.67769 0.780588 4.33072 0.778721 3.90167C0.778721 3.89981 0.778721 3.89608 0.778721 3.89421V0.784548C0.773121 0.355501 1.11845 0.00294124 1.54779 -0.00265503C1.55339 -0.000789606 1.56272 -0.000793477 1.57019 -0.000793477Z" fill="#285AC3"/>
</svg>
