<svg width="80" height="40" viewBox="0 0 80 40" fill="none" xmlns="http://www.w3.org/2000/svg">
<rect x="0.5" y="0.5" width="79" height="39" rx="3.5" fill="white"/>
<path d="M29.3311 18.7732L15.723 11.1263C15.5394 11.0307 15.3375 10.9883 15.1356 11.0028C14.9337 11.0173 14.7382 11.0883 14.567 11.2094C14.3957 11.3306 14.2541 11.4979 14.1551 11.6962C14.0561 11.8945 14.0028 12.1175 14 12.3448V27.632C13.9983 27.8654 14.0502 28.0953 14.1507 28.2996C14.2512 28.5039 14.3968 28.6756 14.5736 28.7981C14.7504 28.9206 14.9523 28.9898 15.1598 28.9989C15.3673 29.0081 15.5734 28.957 15.7582 28.8505L29.3311 21.2036C29.5322 21.0902 29.7012 20.9162 29.8193 20.701C29.9374 20.4858 30 20.2379 30 19.9851C30 19.7323 29.9374 19.4844 29.8193 19.2692C29.7012 19.0541 29.5322 18.88 29.3311 18.7666V18.7732Z" fill="#4673D2"/>
<path d="M43.46 21.4844C43.46 21.252 43.4235 21.0469 43.3506 20.8691C43.2822 20.6868 43.1592 20.5228 42.9814 20.377C42.8083 20.2311 42.5667 20.0921 42.2568 19.96C41.9515 19.8278 41.5641 19.6934 41.0947 19.5566C40.6025 19.4108 40.1582 19.249 39.7617 19.0713C39.3652 18.889 39.0257 18.6816 38.7432 18.4492C38.4606 18.2168 38.2441 17.9502 38.0938 17.6494C37.9434 17.3486 37.8682 17.0046 37.8682 16.6172C37.8682 16.2298 37.9479 15.8721 38.1074 15.5439C38.2669 15.2158 38.4948 14.931 38.791 14.6895C39.0918 14.4434 39.4495 14.252 39.8643 14.1152C40.279 13.9785 40.7415 13.9102 41.252 13.9102C41.9993 13.9102 42.6328 14.0537 43.1523 14.3408C43.6764 14.6234 44.0752 14.9948 44.3486 15.4551C44.6221 15.9108 44.7588 16.3984 44.7588 16.918H43.4463C43.4463 16.5443 43.3665 16.2139 43.207 15.9268C43.0475 15.6351 42.806 15.4072 42.4824 15.2432C42.1589 15.0745 41.7487 14.9902 41.252 14.9902C40.7826 14.9902 40.3952 15.0609 40.0898 15.2021C39.7845 15.3434 39.5566 15.5348 39.4062 15.7764C39.2604 16.0179 39.1875 16.2936 39.1875 16.6035C39.1875 16.8132 39.2308 17.0046 39.3174 17.1777C39.4085 17.3464 39.5475 17.5036 39.7344 17.6494C39.9258 17.7952 40.1673 17.9297 40.459 18.0527C40.7552 18.1758 41.1084 18.2943 41.5186 18.4082C42.0837 18.5677 42.5713 18.7454 42.9814 18.9414C43.3916 19.1374 43.7288 19.3584 43.9932 19.6045C44.262 19.846 44.4603 20.1217 44.5879 20.4316C44.7201 20.737 44.7861 21.0833 44.7861 21.4707C44.7861 21.8763 44.7041 22.2432 44.54 22.5713C44.376 22.8994 44.1413 23.1797 43.8359 23.4121C43.5306 23.6445 43.1637 23.8245 42.7354 23.9521C42.3115 24.0752 41.8376 24.1367 41.3135 24.1367C40.8532 24.1367 40.3997 24.0729 39.9531 23.9453C39.5111 23.8177 39.1077 23.6263 38.7432 23.3711C38.3831 23.1159 38.0938 22.8014 37.875 22.4277C37.6608 22.0495 37.5537 21.612 37.5537 21.1152H38.8662C38.8662 21.457 38.9323 21.751 39.0645 21.9971C39.1966 22.2386 39.3766 22.4391 39.6045 22.5986C39.8369 22.7581 40.099 22.8766 40.3906 22.9541C40.6868 23.027 40.9945 23.0635 41.3135 23.0635C41.7738 23.0635 42.1634 22.9997 42.4824 22.8721C42.8014 22.7445 43.043 22.5622 43.207 22.3252C43.3757 22.0882 43.46 21.8079 43.46 21.4844ZM49.073 16.6035V17.5742H45.074V16.6035H49.073ZM46.4275 14.8057H47.6922V22.168C47.6922 22.4186 47.7309 22.6077 47.8084 22.7354C47.8859 22.863 47.9861 22.9473 48.1092 22.9883C48.2322 23.0293 48.3644 23.0498 48.5057 23.0498C48.6105 23.0498 48.7199 23.0407 48.8338 23.0225C48.9523 22.9997 49.0411 22.9814 49.1004 22.9678L49.1072 24C49.007 24.0319 48.8748 24.0615 48.7107 24.0889C48.5512 24.1208 48.3576 24.1367 48.1297 24.1367C47.8198 24.1367 47.535 24.0752 47.2752 23.9521C47.0154 23.8291 46.8081 23.624 46.6531 23.3369C46.5027 23.0452 46.4275 22.6533 46.4275 22.1611V14.8057ZM54.6178 22.7354V18.9277C54.6178 18.6361 54.5585 18.3831 54.44 18.1689C54.3261 17.9502 54.1529 17.7816 53.9205 17.6631C53.6881 17.5446 53.401 17.4854 53.0592 17.4854C52.7402 17.4854 52.4599 17.54 52.2184 17.6494C51.9814 17.7588 51.7945 17.9023 51.6578 18.0801C51.5257 18.2578 51.4596 18.4492 51.4596 18.6543H50.1949C50.1949 18.39 50.2633 18.1279 50.4 17.8682C50.5367 17.6084 50.7327 17.3737 50.9879 17.1641C51.2477 16.9499 51.5576 16.7812 51.9176 16.6582C52.2822 16.5306 52.6878 16.4668 53.1344 16.4668C53.6721 16.4668 54.1461 16.5579 54.5562 16.7402C54.971 16.9225 55.2945 17.1982 55.527 17.5674C55.7639 17.932 55.8824 18.39 55.8824 18.9414V22.3867C55.8824 22.6328 55.9029 22.8949 55.9439 23.1729C55.9895 23.4508 56.0556 23.6901 56.1422 23.8906V24H54.8229C54.759 23.8542 54.7089 23.6605 54.6725 23.4189C54.636 23.1729 54.6178 22.945 54.6178 22.7354ZM54.8365 19.5156L54.8502 20.4043H53.5719C53.2118 20.4043 52.8906 20.4339 52.608 20.4932C52.3255 20.5479 52.0885 20.6322 51.8971 20.7461C51.7057 20.86 51.5598 21.0036 51.4596 21.1768C51.3593 21.3454 51.3092 21.5436 51.3092 21.7715C51.3092 22.0039 51.3616 22.2158 51.4664 22.4072C51.5712 22.5986 51.7285 22.7513 51.9381 22.8652C52.1523 22.9746 52.4143 23.0293 52.7242 23.0293C53.1116 23.0293 53.4534 22.9473 53.7496 22.7832C54.0458 22.6191 54.2805 22.4186 54.4537 22.1816C54.6314 21.9447 54.7271 21.7145 54.7408 21.4912L55.2809 22.0996C55.249 22.291 55.1624 22.5029 55.0211 22.7354C54.8798 22.9678 54.6907 23.1911 54.4537 23.4053C54.2213 23.6149 53.9433 23.7904 53.6197 23.9316C53.3007 24.0684 52.9407 24.1367 52.5396 24.1367C52.0383 24.1367 51.5986 24.0387 51.2203 23.8428C50.8466 23.6468 50.5549 23.3848 50.3453 23.0566C50.1402 22.724 50.0377 22.3525 50.0377 21.9424C50.0377 21.5459 50.1152 21.1973 50.2701 20.8965C50.4251 20.5911 50.6484 20.3382 50.94 20.1377C51.2317 19.9326 51.5826 19.7777 51.9928 19.6729C52.4029 19.568 52.8609 19.5156 53.3668 19.5156H54.8365ZM58.8363 17.7656V24H57.5717V16.6035H58.8021L58.8363 17.7656ZM61.1469 16.5625L61.14 17.7383C61.0352 17.7155 60.935 17.7018 60.8393 17.6973C60.7481 17.6882 60.6433 17.6836 60.5248 17.6836C60.2331 17.6836 59.9757 17.7292 59.7523 17.8203C59.529 17.9115 59.3399 18.0391 59.185 18.2031C59.03 18.3672 58.907 18.5632 58.8158 18.791C58.7292 19.0143 58.6723 19.2604 58.6449 19.5293L58.2895 19.7344C58.2895 19.2878 58.3327 18.8685 58.4193 18.4766C58.5105 18.0846 58.6495 17.7383 58.8363 17.4375C59.0232 17.1322 59.2602 16.8952 59.5473 16.7266C59.8389 16.5534 60.1853 16.4668 60.5863 16.4668C60.6775 16.4668 60.7823 16.4782 60.9008 16.501C61.0193 16.5192 61.1013 16.5397 61.1469 16.5625ZM65.4543 16.6035V17.5742H61.4553V16.6035H65.4543ZM62.8088 14.8057H64.0734V22.168C64.0734 22.4186 64.1122 22.6077 64.1896 22.7354C64.2671 22.863 64.3674 22.9473 64.4904 22.9883C64.6135 23.0293 64.7456 23.0498 64.8869 23.0498C64.9917 23.0498 65.1011 23.0407 65.215 23.0225C65.3335 22.9997 65.4224 22.9814 65.4816 22.9678L65.4885 24C65.3882 24.0319 65.2561 24.0615 65.092 24.0889C64.9325 24.1208 64.7388 24.1367 64.5109 24.1367C64.201 24.1367 63.9162 24.0752 63.6564 23.9521C63.3967 23.8291 63.1893 23.624 63.0344 23.3369C62.884 23.0452 62.8088 22.6533 62.8088 22.1611V14.8057Z" fill="#2C2C2C"/>
<rect x="0.5" y="0.5" width="79" height="39" rx="3.5" stroke="#B4C1CD"/>
</svg>
