<svg width="49" height="20" viewBox="0 0 49 20" fill="none" xmlns="http://www.w3.org/2000/svg">
<path d="M10.0952 0.75H38.9048C41.3856 0.75 43.7633 1.72626 45.5154 3.46177C47.2672 5.19704 48.25 7.54905 48.25 10C48.25 12.4509 47.2672 14.803 45.5154 16.5382C43.7633 18.2737 41.3856 19.25 38.9048 19.25H10.0952C7.61444 19.25 5.23667 18.2737 3.48464 16.5382C1.73284 14.803 0.75 12.4509 0.75 10C0.75 7.54905 1.73284 5.19704 3.48464 3.46177C5.23668 1.72626 7.61444 0.75 10.0952 0.75Z" stroke="#4673D2" stroke-width="1.5" stroke-linecap="round" stroke-linejoin="round"/>
<path d="M38 16C41.3137 16 44 13.3137 44 10C44 6.68629 41.3137 4 38 4C34.6863 4 32 6.68629 32 10C32 13.3137 34.6863 16 38 16Z" fill="#4673D2"/>
<path d="M18.1885 10.0869V10.6709C18.1885 11.3649 18.1017 11.987 17.9282 12.5371C17.7547 13.0872 17.505 13.5549 17.1792 13.9399C16.8534 14.325 16.4619 14.6191 16.0049 14.8223C15.5521 15.0254 15.0443 15.127 14.4814 15.127C13.9355 15.127 13.4341 15.0254 12.9771 14.8223C12.5243 14.6191 12.1307 14.325 11.7964 13.9399C11.4663 13.5549 11.2103 13.0872 11.0283 12.5371C10.8464 11.987 10.7554 11.3649 10.7554 10.6709V10.0869C10.7554 9.3929 10.8442 8.77295 11.022 8.22705C11.2039 7.67692 11.46 7.20931 11.79 6.82422C12.1201 6.4349 12.5116 6.13867 12.9644 5.93555C13.4214 5.73242 13.9229 5.63086 14.4688 5.63086C15.0316 5.63086 15.5394 5.73242 15.9922 5.93555C16.4492 6.13867 16.8407 6.4349 17.1665 6.82422C17.4966 7.20931 17.7484 7.67692 17.9219 8.22705C18.0996 8.77295 18.1885 9.3929 18.1885 10.0869ZM16.9761 10.6709V10.0742C16.9761 9.52409 16.9189 9.03743 16.8047 8.61426C16.6947 8.19108 16.5317 7.83561 16.3159 7.54785C16.1001 7.26009 15.8356 7.04215 15.5225 6.89404C15.2135 6.74593 14.8623 6.67188 14.4688 6.67188C14.0879 6.67188 13.743 6.74593 13.4341 6.89404C13.1294 7.04215 12.867 7.26009 12.647 7.54785C12.4312 7.83561 12.264 8.19108 12.1455 8.61426C12.027 9.03743 11.9678 9.52409 11.9678 10.0742V10.6709C11.9678 11.2253 12.027 11.7161 12.1455 12.1436C12.264 12.5667 12.4333 12.9243 12.6533 13.2163C12.8776 13.5041 13.1421 13.722 13.4468 13.8701C13.7557 14.0182 14.1006 14.0923 14.4814 14.0923C14.8792 14.0923 15.2326 14.0182 15.5415 13.8701C15.8504 13.722 16.1107 13.5041 16.3223 13.2163C16.5381 12.9243 16.701 12.5667 16.811 12.1436C16.9211 11.7161 16.9761 11.2253 16.9761 10.6709ZM20.7195 9.59814V15H19.5452V8.13184H20.6561L20.7195 9.59814ZM20.4402 11.3057L19.9515 11.2866C19.9557 10.8169 20.0255 10.3831 20.1609 9.98535C20.2964 9.58333 20.4868 9.23421 20.7322 8.93799C20.9777 8.64176 21.2697 8.41325 21.6082 8.25244C21.951 8.0874 22.3297 8.00488 22.7444 8.00488C23.083 8.00488 23.3877 8.05143 23.6585 8.14453C23.9293 8.2334 24.16 8.37728 24.3504 8.57617C24.5451 8.77507 24.6932 9.0332 24.7947 9.35059C24.8963 9.66374 24.9471 10.0467 24.9471 10.4995V15H23.7664V10.4868C23.7664 10.1271 23.7135 9.83936 23.6077 9.62354C23.5019 9.40348 23.3475 9.24479 23.1443 9.14746C22.9412 9.0459 22.6915 8.99512 22.3953 8.99512C22.1033 8.99512 21.8367 9.05648 21.5955 9.1792C21.3585 9.30192 21.1533 9.47119 20.9798 9.68701C20.8105 9.90283 20.6772 10.1504 20.5799 10.4297C20.4868 10.7048 20.4402 10.9967 20.4402 11.3057Z" fill="#2C2C2C"/>
</svg>
