<svg width="16" height="17" viewBox="0 0 16 17" fill="none" xmlns="http://www.w3.org/2000/svg">
<path d="M12.0002 5.83332C12.3538 5.83332 12.6929 5.69285 12.9429 5.4428C13.193 5.19276 13.3334 4.85363 13.3334 4.50001C13.3334 4.14639 13.193 3.80726 12.9429 3.55721C12.6929 3.30717 12.3538 3.16669 12.0002 3.16669C11.6466 3.16669 11.3074 3.30717 11.0574 3.55721C10.8074 3.80726 10.6669 4.14639 10.6669 4.50001C10.6669 4.85363 10.8074 5.19276 11.0574 5.4428C11.3074 5.69285 11.6466 5.83332 12.0002 5.83332ZM0.783379 11.3479C0.535141 11.1015 0.33812 10.8084 0.20367 10.4856C0.0692198 10.1627 0 9.81637 0 9.46661C0 9.11684 0.0692198 8.77054 0.20367 8.44765C0.33812 8.12477 0.535141 7.83169 0.783379 7.5853L7.10307 1.29739C7.60297 0.800773 8.27835 0.521033 8.98298 0.518732L13.3148 0.500066C13.6676 0.497591 14.0175 0.565181 14.344 0.698919C14.6706 0.832657 14.9673 1.02988 15.2171 1.27916C15.4669 1.52845 15.6647 1.82482 15.7991 2.15112C15.9335 2.47742 16.0017 2.82714 16 3.18003L15.968 7.66263C15.9626 8.36262 15.6808 9.03212 15.184 9.52527L8.95765 15.7212C8.45515 16.22 7.7758 16.5 7.06774 16.5C6.35967 16.5 5.68033 16.22 5.17783 15.7212L0.783379 11.3479ZM1.72867 8.52662C1.60475 8.64979 1.50641 8.79625 1.4393 8.95757C1.37219 9.11889 1.33765 9.29188 1.33765 9.46661C1.33765 9.64133 1.37219 9.81432 1.4393 9.97564C1.50641 10.137 1.60475 10.2834 1.72867 10.4066L6.12312 14.7799C6.64576 15.2999 7.49105 15.2999 8.01369 14.7799L14.2401 8.58395C14.4878 8.33732 14.6282 8.00287 14.6307 7.6533L14.6627 3.16936C14.6634 2.99314 14.6292 2.81854 14.562 2.65563C14.4948 2.49272 14.396 2.34475 14.2713 2.22027C14.1465 2.09579 13.9984 1.99727 13.8353 1.9304C13.6723 1.86354 13.4976 1.82965 13.3214 1.83071L8.98831 1.84805C8.63599 1.8492 8.29831 1.98907 8.04836 2.23737L1.72867 8.52662Z" fill="#2C2C2C"/>
</svg>
