<svg width="16" height="17" viewBox="0 0 16 17" fill="none" xmlns="http://www.w3.org/2000/svg">
<path d="M0.783379 11.3479C0.535142 11.1015 0.33812 10.8084 0.20367 10.4856C0.0692198 10.1627 0 9.81637 0 9.46661C0 9.11684 0.0692198 8.77054 0.20367 8.44765C0.33812 8.12477 0.535142 7.83169 0.783379 7.5853L7.10307 1.29739C7.60297 0.800773 8.27835 0.521033 8.98298 0.518732L13.3148 0.500066C13.6676 0.497591 14.0175 0.565181 14.344 0.698919C14.6706 0.832657 14.9673 1.02988 15.2171 1.27916C15.4669 1.52845 15.6647 1.82482 15.7991 2.15112C15.9335 2.47742 16.0017 2.82714 16 3.18003L15.968 7.66263C15.9626 8.36262 15.6808 9.03212 15.184 9.52527L8.95765 15.7212C8.45515 16.22 7.7758 16.5 7.06774 16.5C6.35967 16.5 5.68033 16.22 5.17783 15.7212L0.783379 11.3479Z" fill="#4673D2"/>
<path d="M12.946 5.44615C12.6959 5.6962 12.3568 5.83667 12.0032 5.83667C11.6496 5.83667 11.3105 5.6962 11.0604 5.44615C10.8104 5.19611 10.6699 4.85698 10.6699 4.50336C10.6699 4.14974 10.8104 3.81061 11.0604 3.56056C11.3105 3.31052 11.6496 3.17004 12.0032 3.17004C12.3568 3.17004 12.6959 3.31052 12.946 3.56056C13.196 3.81061 13.3365 4.14974 13.3365 4.50336C13.3365 4.85698 13.196 5.19611 12.946 5.44615Z" fill="white"/>
</svg>
